<svg width="42" height="20" viewBox="0 0 42 20" fill="none" xmlns="http://www.w3.org/2000/svg">
<path d="M0.949886 1.12646C0.675135 1.15414 0.474841 1.3993 0.502518 1.67406C0.530195 1.94881 0.775362 2.1491 1.05011 2.12142L0.949886 1.12646ZM37.6464 19.3536C37.8417 19.5488 38.1583 19.5488 38.3536 19.3536L41.5355 16.1716C41.7308 15.9763 41.7308 15.6597 41.5355 15.4645C41.3403 15.2692 41.0237 15.2692 40.8284 15.4645L38 18.2929L35.1716 15.4645C34.9763 15.2692 34.6597 15.2692 34.4645 15.4645C34.2692 15.6597 34.2692 15.9763 34.4645 16.1716L37.6464 19.3536ZM1.05011 2.12142C10.8971 1.1295 20.0506 1.14205 26.7242 3.5222C30.0501 4.70837 32.7342 6.47371 34.5893 8.97316C36.4424 11.4698 37.5 14.7418 37.5 19H38.5C38.5 14.5701 37.3967 11.0778 35.3923 8.37718C33.39 5.67934 30.5202 3.81435 27.0602 2.58031C20.1619 0.120041 10.8154 0.132658 0.949886 1.12646L1.05011 2.12142Z" fill="#45AC34"/>
</svg>
