<svg width="20" height="21" viewBox="0 0 20 21" fill="none" xmlns="http://www.w3.org/2000/svg">
<path fill-rule="evenodd" clip-rule="evenodd" d="M6.38256 0.23209C6.29201 0.359794 5.92143 1.07768 5.55915 1.82754C5.00524 2.9737 4.91122 3.22255 4.96846 3.39048C5.01524 3.52745 5.18164 3.66326 5.49822 3.82269C5.7521 3.95055 6.39156 4.258 6.91916 4.50592C7.44684 4.75376 7.99283 4.97519 8.13262 4.99797C8.31256 5.02731 8.43104 4.99905 8.53882 4.90123C8.62245 4.82518 8.69038 4.67284 8.68977 4.56266C8.68907 4.45249 8.66315 4.32316 8.63207 4.27537C8.60099 4.2275 8.16008 3.97951 7.65233 3.72425L6.72914 3.26015L7.38307 3.06064C7.74273 2.95093 8.33126 2.79226 8.69092 2.70803C9.05058 2.62387 9.76028 2.49725 10.268 2.42676C11.0145 2.32306 11.4783 2.30932 12.6914 2.35518C13.5165 2.38638 14.416 2.41641 14.6902 2.42197C15.1672 2.43162 15.1935 2.42251 15.2948 2.21103C15.373 2.04805 15.3797 1.9435 15.3207 1.81333C15.2766 1.7162 15.1256 1.59977 14.9853 1.5546C14.845 1.50936 14.4368 1.4364 14.0782 1.39246C13.7197 1.34853 12.8879 1.31255 12.2298 1.31255C11.5717 1.31255 10.7399 1.34876 10.3814 1.39308C10.0229 1.4374 9.29938 1.56194 8.77378 1.66972C8.2481 1.77758 7.53855 1.94706 7.19697 2.04635C6.85539 2.14564 6.56458 2.21551 6.55073 2.20154C6.53689 2.18764 6.65244 1.90374 6.80761 1.57066C6.96271 1.23758 7.13619 0.836714 7.19304 0.679748C7.2869 0.42048 7.28228 0.376394 7.14181 0.197192C7.04041 0.0678667 6.91155 0 6.7673 0C6.61051 0 6.49996 0.0667858 6.38256 0.23209ZM1.0746 5.60491C0.926505 5.6693 0.705786 5.81561 0.584078 5.93004C0.462294 6.04446 0.280887 6.31183 0.180875 6.52416C0.05209 6.79763 -0.000685674 7.04532 6.71857e-06 7.37346C0.000545246 7.66832 0.0562444 7.95909 0.153102 8.17334C0.264655 8.42003 1.28432 9.49678 3.96934 12.2032L7.63333 15.8965L6.04244 15.4828C5.16749 15.2553 4.28315 15.0459 4.0772 15.0175C3.79001 14.9778 3.62514 15.0006 3.36957 15.1152C3.18632 15.1974 2.93621 15.3654 2.81381 15.4884C2.69141 15.6113 2.5277 15.851 2.45008 16.0209C2.37245 16.1907 2.30814 16.4125 2.30721 16.5138C2.30629 16.615 2.34568 16.8324 2.39484 16.9969C2.44392 17.1614 2.60371 17.4363 2.74988 17.6076C2.89605 17.779 3.22209 18.0238 3.47443 18.1517C3.72669 18.2795 4.47571 18.6023 5.13879 18.869C5.80195 19.1358 6.70798 19.4794 7.15227 19.6325C7.59655 19.7857 8.34088 20.0149 8.80632 20.1417C9.27176 20.2686 9.92953 20.4259 10.268 20.4913C10.6065 20.5566 11.3082 20.6477 11.8275 20.6938C12.3466 20.7399 12.9351 20.8274 13.1353 20.8883C13.3354 20.9493 13.6109 20.9995 13.7475 21C13.9277 21.0006 14.0301 20.9481 14.1214 20.8084C14.1998 20.6882 14.2289 20.5435 14.1988 20.4232C14.1691 20.3042 14.041 20.1753 13.8634 20.0858C13.7054 20.0061 13.403 19.901 13.1915 19.8523C12.9799 19.8036 12.3133 19.7124 11.7101 19.6496C11.1069 19.5868 10.3626 19.4803 10.056 19.4128C9.74951 19.3453 9.04696 19.1539 8.4949 18.9876C7.94283 18.8213 7.21582 18.5842 6.87931 18.4607C6.54281 18.3373 5.90404 18.0908 5.45975 17.9129C5.01547 17.7351 4.36685 17.453 4.01835 17.2861C3.52075 17.0477 3.37396 16.9397 3.3348 16.7831C3.30472 16.6629 3.33318 16.482 3.40627 16.3282C3.47305 16.1876 3.59706 16.0506 3.68184 16.0236C3.77124 15.9951 4.7999 16.2242 6.12884 16.5686C7.38991 16.8954 8.6333 17.2154 8.89202 17.2797C9.15075 17.344 9.41701 17.3756 9.48379 17.3499C9.55056 17.3242 9.66519 17.2112 9.73851 17.0988C9.85614 16.9186 9.85899 16.8736 9.76228 16.7178C9.70189 16.6207 7.75119 14.6092 5.42737 12.2479C3.10346 9.88653 1.13899 7.85856 1.06191 7.7412C0.98482 7.62385 0.921504 7.46364 0.921274 7.38512C0.920966 7.30659 0.978511 7.12013 1.04921 6.97066C1.11984 6.82126 1.28432 6.63372 1.41464 6.55396C1.54497 6.47421 1.77015 6.40881 1.91501 6.40865C2.15927 6.40835 2.40315 6.63318 5.26458 9.49671C8.2004 12.4347 8.36434 12.5851 8.63184 12.5851C8.83517 12.5851 8.94618 12.5376 9.03273 12.4134C9.09859 12.3191 9.15251 12.17 9.15251 12.0821C9.15251 11.9934 8.99473 11.7693 8.79762 11.5781C8.60245 11.3888 8.27356 11.0323 8.06677 10.7859C7.7875 10.4532 7.69095 10.2744 7.69134 10.0911C7.69157 9.95525 7.75704 9.74485 7.83681 9.6234C7.91652 9.50203 8.08077 9.33719 8.20171 9.2572C8.32272 9.17714 8.5082 9.11267 8.61399 9.1139C8.71977 9.11514 8.87979 9.1583 8.96965 9.20987C9.05943 9.26145 9.57572 9.73003 10.1169 10.2512C10.6581 10.7723 11.1837 11.2195 11.2849 11.245C11.4153 11.2778 11.524 11.2396 11.6571 11.1141C11.7605 11.0166 11.8452 10.8573 11.8452 10.7602C11.8452 10.644 11.6084 10.3307 11.1538 9.84523C10.7735 9.43911 10.4408 9.02087 10.4145 8.91571C10.3883 8.81063 10.3878 8.64046 10.4135 8.53754C10.4393 8.43462 10.548 8.24584 10.6552 8.11806C10.7624 7.9902 10.9651 7.84752 11.1058 7.80096C11.2772 7.74414 11.4263 7.74105 11.5584 7.79147C11.6668 7.83277 12.2253 8.32027 12.7994 8.87471C13.658 9.70378 13.8837 9.88275 14.0708 9.88275C14.2187 9.88275 14.3402 9.82268 14.418 9.71111C14.4839 9.61677 14.5378 9.46528 14.5378 9.37456C14.5378 9.28384 14.4047 9.05708 14.242 8.87062C14.0793 8.68416 13.9062 8.4557 13.8573 8.36297C13.8085 8.27016 13.7686 8.11381 13.7688 8.01553C13.7689 7.91716 13.8363 7.72599 13.9185 7.59072C14.0007 7.45538 14.1423 7.30482 14.2331 7.25602C14.3239 7.20723 14.4809 7.18816 14.582 7.21356C14.683 7.23904 14.8848 7.36473 15.0301 7.49282C15.1755 7.62091 15.5278 8.07745 15.8129 8.50735C16.0981 8.93725 16.4958 9.60495 16.6966 9.99123C16.8975 10.3774 17.2286 11.1451 17.4324 11.6972C17.6361 12.2492 17.9881 13.0624 18.2144 13.5044C18.4407 13.9464 18.7633 14.511 18.9312 14.759C19.1787 15.1248 19.2763 15.2102 19.4472 15.2102C19.5632 15.2102 19.735 15.156 19.829 15.09C19.9344 15.0159 20 14.8893 20 14.76C20 14.6448 19.8866 14.3775 19.748 14.1661C19.6093 13.9548 19.3989 13.6081 19.2805 13.3958C19.162 13.1834 18.961 12.7665 18.8339 12.4693C18.7068 12.172 18.4695 11.5744 18.3066 11.1413C18.1438 10.7082 17.8329 10.0068 17.6158 9.58264C17.3987 9.15845 16.9771 8.44072 16.679 7.98758C16.3808 7.53452 16.0096 7.03613 15.854 6.88002C15.6985 6.72398 15.434 6.52956 15.2661 6.44811C15.0966 6.3658 14.7387 6.28674 14.4609 6.2703C14.0337 6.24489 13.922 6.26698 13.6948 6.42186C13.5484 6.52153 13.3183 6.74845 13.1833 6.92603C13.0484 7.10369 12.9221 7.2944 12.9028 7.34983C12.8755 7.42835 12.8355 7.42279 12.7219 7.32458C12.6416 7.25517 12.429 7.12423 12.2493 7.03358C12.0696 6.94286 11.77 6.84774 11.5835 6.82211C11.397 6.7964 11.0767 6.81647 10.8716 6.86658C10.6666 6.91669 10.3604 7.05265 10.1911 7.1687C9.98454 7.31038 9.80675 7.53336 9.65034 7.8469C9.4517 8.24522 9.39508 8.30522 9.26568 8.25449C9.18229 8.22175 8.90633 8.19288 8.65245 8.19033C8.32287 8.18701 8.08069 8.23712 7.80566 8.36567C7.59378 8.46473 7.30813 8.67404 7.17096 8.83085C7.03372 8.98774 6.92093 9.15822 6.92032 9.20987C6.91963 9.26145 6.88778 9.3534 6.84939 9.41425C6.79576 9.49933 6.36694 9.11452 4.985 7.74082C3.99788 6.75965 3.1037 5.89035 2.99791 5.80897C2.89213 5.72759 2.68788 5.62066 2.54409 5.5714C2.40022 5.52214 2.07134 5.48323 1.81323 5.48485C1.55504 5.48655 1.2227 5.54052 1.0746 5.60491Z" fill="#3D3D3D"/>
</svg>
