<svg width="36" height="36" viewBox="0 0 36 36" fill="none" xmlns="http://www.w3.org/2000/svg">
<path d="M0.150099 17.8379C0.149165 20.9813 0.974177 24.0507 2.54308 26.756L0 36L9.50233 33.5196C12.1203 34.9401 15.0679 35.6896 18.0677 35.6907H18.0758C27.9544 35.6907 35.9959 27.6879 36 17.8518C36.002 13.0854 34.1391 8.60358 30.7546 5.23179C27.3707 1.85999 22.8701 0.0021286 18.0751 0C8.19524 0 0.154106 8.00216 0.150099 17.838" fill="url(#paint0_linear_107_1164)"/>
<path fill-rule="evenodd" clip-rule="evenodd" d="M13.4632 10.1714C13.115 9.39743 12.7485 9.38185 12.4172 9.36827C12.1463 9.3567 11.8361 9.35743 11.5265 9.35743C11.2166 9.35743 10.713 9.47383 10.2871 9.93893C9.86103 10.404 8.66016 11.5284 8.66016 13.8152C8.66016 16.1023 10.3259 18.3119 10.5581 18.6223C10.7904 18.9323 13.7736 23.775 18.4979 25.6381C22.4243 27.1864 23.2232 26.8784 24.0755 26.8009C24.9277 26.7235 26.8254 25.6768 27.2128 24.5915C27.6001 23.5062 27.6001 22.5761 27.4839 22.3816C27.3677 22.1879 27.0578 22.0717 26.593 21.8393C26.1281 21.6068 23.843 20.4822 23.4169 20.3273C22.9908 20.1723 22.6809 20.0949 22.371 20.5602C22.0611 21.0251 21.171 22.0717 20.8996 22.3817C20.6285 22.6923 20.3574 22.731 19.8925 22.4986C19.4276 22.2654 17.9306 21.7751 16.1548 20.1917C14.773 18.9598 13.8402 17.4384 13.5689 16.9731C13.2978 16.5082 13.54 16.2564 13.7731 16.0247C13.9818 15.8165 14.238 15.4822 14.4704 15.2107C14.7023 14.9393 14.7798 14.7456 14.9348 14.4357C15.0897 14.1253 15.0122 13.8539 14.896 13.6215C14.7798 13.389 13.8765 11.0904 13.4632 10.1714Z" fill="white"/>
<defs>
<linearGradient id="paint0_linear_107_1164" x1="17.9999" y1="36" x2="17.9999" y2="-3.34558e-05" gradientUnits="userSpaceOnUse">
<stop stop-color="#20B038"/>
<stop offset="1" stop-color="#60D66A"/>
</linearGradient>
</defs>
</svg>
