<svg width="19" height="16" viewBox="0 0 19 16" fill="none" xmlns="http://www.w3.org/2000/svg">
<path fill-rule="evenodd" clip-rule="evenodd" d="M0.790803 0.127868C0.64151 0.198224 0.454441 0.323204 0.375089 0.405605C0.295737 0.48805 0.178836 0.665474 0.115363 0.79992L0 1.04437V8V14.9556L0.115363 15.2001C0.178836 15.3345 0.295737 15.512 0.375089 15.5944C0.454441 15.6768 0.64151 15.8018 0.790803 15.8721L1.06225 16H9.49959H17.9369L18.2084 15.8721C18.3577 15.8018 18.5447 15.6768 18.6241 15.5944C18.7034 15.512 18.8204 15.3345 18.8838 15.2001L18.9992 14.9556L18.9996 8L19 1.04437L18.8698 0.777698C18.7982 0.631029 18.671 0.447249 18.5871 0.369293C18.5032 0.291337 18.3226 0.176491 18.1858 0.114135L17.9369 0.000799909L9.49959 0.000400124L1.06225 0L0.790803 0.127868ZM17.9472 1.03414L18.0727 1.15726L18.087 1.91193L18.1013 2.66661H9.49959H0.897933L0.912229 1.91558C0.925122 1.23846 0.935437 1.15486 1.01701 1.06588C1.06677 1.01161 1.1482 0.950766 1.19797 0.930633C1.24773 0.910544 5.00844 0.897877 9.5551 0.902543L17.8218 0.911032L17.9472 1.03414ZM1.48855 1.46317C1.38486 1.56508 1.35631 1.63291 1.35631 1.77771C1.35631 1.92251 1.38486 1.99033 1.48855 2.09225C1.59228 2.19411 1.66132 2.22216 1.80871 2.22216C1.95611 2.22216 2.02514 2.19411 2.12888 2.09225C2.23257 1.99033 2.26112 1.92251 2.26112 1.77771C2.26112 1.63291 2.23257 1.56508 2.12888 1.46317C2.02514 1.3613 1.95611 1.33326 1.80871 1.33326C1.66132 1.33326 1.59228 1.3613 1.48855 1.46317ZM2.84576 1.46317C2.74207 1.56508 2.71352 1.63291 2.71352 1.77771C2.71352 1.92251 2.74207 1.99033 2.84576 2.09225C2.9495 2.19411 3.01853 2.22216 3.16593 2.22216C3.31332 2.22216 3.38236 2.19411 3.48609 2.09225C3.58979 1.99033 3.61833 1.92251 3.61833 1.77771C3.61833 1.63291 3.58979 1.56508 3.48609 1.46317C3.38236 1.3613 3.31332 1.33326 3.16593 1.33326C3.01853 1.33326 2.9495 1.3613 2.84576 1.46317ZM4.20297 1.46317C4.09928 1.56508 4.07074 1.63291 4.07074 1.77771C4.07074 1.92251 4.09928 1.99033 4.20297 2.09225C4.30671 2.19411 4.37575 2.22216 4.52314 2.22216C4.67053 2.22216 4.73957 2.19411 4.84331 2.09225C4.947 1.99033 4.97555 1.92251 4.97555 1.77771C4.97555 1.63291 4.947 1.56508 4.84331 1.46317C4.73957 1.3613 4.67053 1.33326 4.52314 1.33326C4.37575 1.33326 4.30671 1.3613 4.20297 1.46317ZM18.0845 9.19899L18.0727 14.8425L17.9472 14.9657L17.8218 15.089H9.49959H1.17738L1.05198 14.9657L0.926525 14.8425L0.914717 9.19899L0.902864 3.55551H9.49959H18.0963L18.0845 9.19899ZM14.6889 5.38242C14.6443 5.40793 14.2567 5.94589 13.8277 6.57794L13.0475 7.72711L12.5027 7.19688C11.9786 6.68683 11.9505 6.66665 11.7658 6.66665C11.6138 6.66665 11.5461 6.69376 11.4414 6.79657C11.3364 6.89986 11.3092 6.96563 11.3092 7.11741C11.3092 7.30559 11.3209 7.31986 12.1136 8.09862C12.8877 8.85903 12.9249 8.8889 13.0988 8.8889C13.1983 8.8889 13.3204 8.86085 13.3702 8.82663C13.42 8.79236 13.8927 8.12702 14.4208 7.34813C15.2506 6.12402 15.3809 5.90896 15.3809 5.76251C15.3809 5.63455 15.3485 5.56135 15.2486 5.46322C15.1477 5.36406 15.0754 5.33361 14.9432 5.33464C14.848 5.33539 14.7336 5.3569 14.6889 5.38242ZM3.75057 6.79657C3.64688 6.89848 3.61833 6.9663 3.61833 7.1111C3.61833 7.2559 3.64688 7.32373 3.75057 7.42564L3.88281 7.55555H6.55896H9.23512L9.36735 7.42564C9.47105 7.32373 9.49959 7.2559 9.49959 7.1111C9.49959 6.9663 9.47105 6.89848 9.36735 6.79657L9.23512 6.66665H6.55896H3.88281L3.75057 6.79657ZM14.6889 9.82691C14.6443 9.85242 14.2567 10.3904 13.8277 11.0224L13.0475 12.1716L12.5027 11.6414C11.9786 11.1313 11.9505 11.1111 11.7658 11.1111C11.6138 11.1111 11.5461 11.1383 11.4414 11.2411C11.3364 11.3443 11.3092 11.4101 11.3092 11.5619C11.3092 11.7501 11.3209 11.7644 12.1136 12.5431C12.8877 13.3035 12.9249 13.3334 13.0988 13.3334C13.1983 13.3334 13.3204 13.3053 13.3702 13.2711C13.42 13.2369 13.8927 12.5715 14.4208 11.7926C15.2506 10.5685 15.3809 10.3534 15.3809 10.207C15.3809 10.079 15.3485 10.0058 15.2486 9.90771C15.1477 9.80855 15.0754 9.77811 14.9432 9.77913C14.848 9.77989 14.7336 9.8014 14.6889 9.82691ZM3.75057 11.2411C3.64688 11.343 3.61833 11.4108 3.61833 11.5556C3.61833 11.7004 3.64688 11.7682 3.75057 11.8701L3.88281 12H6.55896H9.23512L9.36735 11.8701C9.47105 11.7682 9.49959 11.7004 9.49959 11.5556C9.49959 11.4108 9.47105 11.343 9.36735 11.2411L9.23512 11.1111H6.55896H3.88281L3.75057 11.2411Z" fill="white"/>
</svg>
