<svg width="70" height="70" viewBox="0 0 70 70" fill="none" xmlns="http://www.w3.org/2000/svg">
<path d="M23.3355 35.0004C23.3355 28.5573 28.5573 23.3327 35.0004 23.3327C41.4436 23.3327 46.6682 28.5573 46.6682 35.0004C46.6682 41.4436 41.4436 46.6682 35.0004 46.6682C28.5573 46.6682 23.3355 41.4436 23.3355 35.0004ZM17.0281 35.0004C17.0281 44.9265 25.0743 52.9727 35.0004 52.9727C44.9265 52.9727 52.9727 44.9265 52.9727 35.0004C52.9727 25.0743 44.9265 17.0281 35.0004 17.0281C25.0743 17.0281 17.0281 25.0743 17.0281 35.0004ZM49.4842 16.3155C49.4838 17.1462 49.7298 17.9583 50.1911 18.6492C50.6523 19.3401 51.308 19.8787 52.0754 20.1969C52.8427 20.5151 53.6872 20.5986 54.502 20.4369C55.3167 20.2751 56.0653 19.8754 56.6529 19.2883C57.2405 18.7011 57.6408 17.9529 57.8032 17.1382C57.9656 16.3236 57.8828 15.479 57.5652 14.7115C57.2476 13.9439 56.7095 13.2877 56.019 12.8259C55.3285 12.3641 54.5166 12.1175 53.6859 12.1171H53.6842C52.5707 12.1177 51.503 12.5601 50.7155 13.3473C49.928 14.1345 49.4851 15.202 49.4842 16.3155ZM20.8603 63.4899C17.4479 63.3345 15.5931 62.7661 14.3605 62.2859C12.7264 61.6497 11.5605 60.8921 10.3346 59.6679C9.10879 58.4437 8.34998 57.2789 7.71661 55.6448C7.23613 54.4128 6.66772 52.5575 6.5126 49.1451C6.34292 45.4557 6.30904 44.3475 6.30904 35.0007C6.30904 25.6539 6.34572 24.5487 6.5126 20.8563C6.668 17.4439 7.24061 15.5923 7.71661 14.3566C8.35278 12.7225 9.11047 11.5566 10.3346 10.3307C11.5588 9.10487 12.7236 8.34606 14.3605 7.71269C15.5925 7.23221 17.4479 6.6638 20.8603 6.50868C24.5496 6.339 25.6578 6.30512 35.0004 6.30512C44.343 6.30512 45.4524 6.3418 49.1448 6.50868C52.5572 6.66408 54.4089 7.23669 55.6445 7.71269C57.2786 8.34606 58.4445 9.10655 59.6704 10.3307C60.8963 11.5549 61.6523 12.7225 62.2884 14.3566C62.7689 15.5886 63.3373 17.4439 63.4925 20.8563C63.6621 24.5487 63.696 25.6539 63.696 35.0007C63.696 44.3475 63.6621 45.4527 63.4925 49.1451C63.3371 52.5575 62.7658 54.4122 62.2884 55.6448C61.6523 57.2789 60.8946 58.4448 59.6704 59.6679C58.4462 60.8909 57.2786 61.6497 55.6445 62.2859C54.4125 62.7664 52.5572 63.3348 49.1448 63.4899C45.4555 63.6596 44.3472 63.6935 35.0004 63.6935C25.6536 63.6935 24.5485 63.6596 20.8603 63.4899ZM20.5704 0.211963C16.8444 0.381645 14.2984 0.972452 12.0749 1.83766C9.77212 2.73115 7.82273 3.92985 5.87475 5.87475C3.92677 7.81965 2.73115 9.77212 1.83766 12.0749C0.972452 14.2998 0.381645 16.8444 0.211963 20.5704C0.0394805 24.3023 0 25.4954 0 35.0004C0 44.5054 0.0394805 45.6985 0.211963 49.4304C0.381645 53.1567 0.972452 55.7011 1.83766 57.926C2.73115 60.2273 3.92705 62.182 5.87475 64.1261C7.82245 66.0702 9.77212 67.2672 12.0749 68.1632C14.3026 69.0284 16.8444 69.6192 20.5704 69.7889C24.3043 69.9586 25.4954 70.0008 35.0004 70.0008C44.5054 70.0008 45.6985 69.9614 49.4304 69.7889C53.1567 69.6192 55.7011 69.0284 57.926 68.1632C60.2273 67.2672 62.1781 66.071 64.1261 64.1261C66.0741 62.1812 67.2672 60.2273 68.1632 57.926C69.0284 55.7011 69.622 53.1564 69.7889 49.4304C69.9586 45.6957 69.998 44.5054 69.998 35.0004C69.998 25.4954 69.9586 24.3023 69.7889 20.5704C69.6192 16.8442 69.0284 14.2984 68.1632 12.0749C67.2672 9.77352 66.071 7.82273 64.1261 5.87475C62.1812 3.92677 60.2273 2.73115 57.9288 1.83766C55.7011 0.972452 53.1564 0.378845 49.4332 0.211963C45.7013 0.0422805 44.5082 0 35.0032 0C25.4982 0 24.3043 0.0394805 20.5704 0.211963Z" fill="url(#paint0_radial_213_785)"/>
<path d="M23.3355 35.0004C23.3355 28.5573 28.5573 23.3327 35.0004 23.3327C41.4436 23.3327 46.6682 28.5573 46.6682 35.0004C46.6682 41.4436 41.4436 46.6682 35.0004 46.6682C28.5573 46.6682 23.3355 41.4436 23.3355 35.0004ZM17.0281 35.0004C17.0281 44.9265 25.0743 52.9727 35.0004 52.9727C44.9265 52.9727 52.9727 44.9265 52.9727 35.0004C52.9727 25.0743 44.9265 17.0281 35.0004 17.0281C25.0743 17.0281 17.0281 25.0743 17.0281 35.0004ZM49.4842 16.3155C49.4838 17.1462 49.7298 17.9583 50.1911 18.6492C50.6523 19.3401 51.308 19.8787 52.0754 20.1969C52.8427 20.5151 53.6872 20.5986 54.502 20.4369C55.3167 20.2751 56.0653 19.8754 56.6529 19.2883C57.2405 18.7011 57.6408 17.9529 57.8032 17.1382C57.9656 16.3236 57.8828 15.479 57.5652 14.7115C57.2476 13.9439 56.7095 13.2877 56.019 12.8259C55.3285 12.3641 54.5166 12.1175 53.6859 12.1171H53.6842C52.5707 12.1177 51.503 12.5601 50.7155 13.3473C49.928 14.1345 49.4851 15.202 49.4842 16.3155ZM20.8603 63.4899C17.4479 63.3345 15.5931 62.7661 14.3605 62.2859C12.7264 61.6497 11.5605 60.8921 10.3346 59.6679C9.10879 58.4437 8.34998 57.2789 7.71661 55.6448C7.23613 54.4128 6.66772 52.5575 6.5126 49.1451C6.34292 45.4557 6.30904 44.3475 6.30904 35.0007C6.30904 25.6539 6.34572 24.5487 6.5126 20.8563C6.668 17.4439 7.24061 15.5923 7.71661 14.3566C8.35278 12.7225 9.11047 11.5566 10.3346 10.3307C11.5588 9.10487 12.7236 8.34606 14.3605 7.71269C15.5925 7.23221 17.4479 6.6638 20.8603 6.50868C24.5496 6.339 25.6578 6.30512 35.0004 6.30512C44.343 6.30512 45.4524 6.3418 49.1448 6.50868C52.5572 6.66408 54.4089 7.23669 55.6445 7.71269C57.2786 8.34606 58.4445 9.10655 59.6704 10.3307C60.8963 11.5549 61.6523 12.7225 62.2884 14.3566C62.7689 15.5886 63.3373 17.4439 63.4925 20.8563C63.6621 24.5487 63.696 25.6539 63.696 35.0007C63.696 44.3475 63.6621 45.4527 63.4925 49.1451C63.3371 52.5575 62.7658 54.4122 62.2884 55.6448C61.6523 57.2789 60.8946 58.4448 59.6704 59.6679C58.4462 60.8909 57.2786 61.6497 55.6445 62.2859C54.4125 62.7664 52.5572 63.3348 49.1448 63.4899C45.4555 63.6596 44.3472 63.6935 35.0004 63.6935C25.6536 63.6935 24.5485 63.6596 20.8603 63.4899ZM20.5704 0.211963C16.8444 0.381645 14.2984 0.972452 12.0749 1.83766C9.77212 2.73115 7.82273 3.92985 5.87475 5.87475C3.92677 7.81965 2.73115 9.77212 1.83766 12.0749C0.972452 14.2998 0.381645 16.8444 0.211963 20.5704C0.0394805 24.3023 0 25.4954 0 35.0004C0 44.5054 0.0394805 45.6985 0.211963 49.4304C0.381645 53.1567 0.972452 55.7011 1.83766 57.926C2.73115 60.2273 3.92705 62.182 5.87475 64.1261C7.82245 66.0702 9.77212 67.2672 12.0749 68.1632C14.3026 69.0284 16.8444 69.6192 20.5704 69.7889C24.3043 69.9586 25.4954 70.0008 35.0004 70.0008C44.5054 70.0008 45.6985 69.9614 49.4304 69.7889C53.1567 69.6192 55.7011 69.0284 57.926 68.1632C60.2273 67.2672 62.1781 66.071 64.1261 64.1261C66.0741 62.1812 67.2672 60.2273 68.1632 57.926C69.0284 55.7011 69.622 53.1564 69.7889 49.4304C69.9586 45.6957 69.998 44.5054 69.998 35.0004C69.998 25.4954 69.9586 24.3023 69.7889 20.5704C69.6192 16.8442 69.0284 14.2984 68.1632 12.0749C67.2672 9.77352 66.071 7.82273 64.1261 5.87475C62.1812 3.92677 60.2273 2.73115 57.9288 1.83766C55.7011 0.972452 53.1564 0.378845 49.4332 0.211963C45.7013 0.0422805 44.5082 0 35.0032 0C25.4982 0 24.3043 0.0394805 20.5704 0.211963Z" fill="url(#paint1_radial_213_785)"/>
<defs>
<radialGradient id="paint0_radial_213_785" cx="0" cy="0" r="1" gradientUnits="userSpaceOnUse" gradientTransform="translate(9.30003 70.3315) scale(91.3802)">
<stop offset="0.09" stop-color="#FA8F21"/>
<stop offset="0.78" stop-color="#D82D7E"/>
</radialGradient>
<radialGradient id="paint1_radial_213_785" cx="0" cy="0" r="1" gradientUnits="userSpaceOnUse" gradientTransform="translate(42.4524 73.4676) scale(72.0202)">
<stop offset="0.64" stop-color="#8C3AAA" stop-opacity="0"/>
<stop offset="1" stop-color="#8C3AAA"/>
</radialGradient>
</defs>
</svg>
