<svg width="19" height="19" viewBox="0 0 19 19" fill="none" xmlns="http://www.w3.org/2000/svg">
<path d="M16.9852 2.51531L17.953 2.26366C17.9533 2.26461 17.9537 2.26609 17.9542 2.26807C17.9623 2.29757 18.001 2.43834 18 2.60379C17.9991 2.74339 17.9689 2.87385 17.9623 2.90272C17.9618 2.90489 17.9614 2.90649 17.9612 2.90748L17.9612 2.90748L17.96 2.91261C17.8209 3.5363 17.4226 3.92646 16.7881 4.54806L16.7641 4.57156C15.8948 5.42405 15.1691 6.18142 14.6661 6.75712C12.4749 9.26487 10.6337 12.2702 9.11704 15.8417L9.11662 15.8427C8.98668 16.1478 8.78198 16.6495 8.68291 16.9037L7.75119 16.5405L7.64185 17.9488L7.63933 17.9495C7.63914 17.9495 7.63894 17.9496 7.63874 17.9496C7.6221 17.9542 7.58226 17.9652 7.53958 17.9743C7.48668 17.9855 7.40314 18 7.30036 18C7.10888 18 6.94674 17.9441 6.9352 17.9401C6.93484 17.94 6.93462 17.9399 6.93456 17.9399L6.93456 17.9399L6.93006 17.9385C6.69325 17.8638 6.45947 17.7349 6.26265 17.5076L6.26264 17.5076L6.25912 17.5035C6.18523 17.4173 6.11406 17.2987 6.09049 17.2595C6.08895 17.2569 6.08761 17.2547 6.08649 17.2528C6.04429 17.1829 5.99564 17.099 5.94895 17.0155L5.94894 17.0155L5.94721 17.0124C4.81114 14.9643 3.91444 13.6061 3.02945 12.5584C2.66963 12.1337 2.02163 11.4523 1.61103 11.0686L1.61004 11.0677C1.52131 10.9845 1.40509 10.8756 1.31138 10.756C1.18141 10.5902 1.11701 10.4374 1.07396 10.3094L1.07369 10.3085C1.0479 10.2316 0.999202 10.0788 1.00001 9.87742C1.00059 9.73182 1.0287 9.59688 1.04185 9.53376C1.04253 9.53053 1.04316 9.52749 1.04375 9.52464L1.04414 9.52277C1.11293 9.19349 1.2298 8.90771 1.49211 8.62509C2.16128 7.90113 3.13381 7.96716 3.92306 8.17095C4.6557 8.36011 5.56105 8.74933 6.65733 9.31114C7.21695 8.64633 7.96751 7.78896 8.63969 7.04515L8.63996 7.04485C11.0437 4.38715 13.0891 2.45225 14.4731 1.61004C14.8979 1.35101 15.3991 1.11597 15.8433 1.04521L15.8529 1.04367L15.8626 1.04231L15.8797 1.03972L15.8987 1.03647L15.9015 1.03594C16.1862 0.967686 16.452 1.01321 16.5864 1.03983L16.5864 1.03979L16.5961 1.04181C16.8555 1.09587 17.1634 1.19745 17.4335 1.42267C17.7233 1.6642 17.8777 1.96986 17.9539 2.26705L16.9852 2.51531ZM16.9852 2.51531C16.9137 2.23631 16.7426 2.09382 16.3921 2.02078L16.984 2.69492C17.0051 2.59793 17.0051 2.59194 16.9852 2.51531ZM6.97055 10.4972L6.95476 10.484L6.97055 10.4972Z" fill="#76EB16" stroke="white" stroke-width="2"/>
</svg>
