<svg width="42" height="52" viewBox="0 0 42 52" fill="none" xmlns="http://www.w3.org/2000/svg">
<path d="M39.4913 26.9051L39.4898 26.9493V26.9935C39.4898 35.2477 34.052 41.0996 26.2016 41.0996C25.6846 41.0996 25.0661 41.2584 24.5331 41.7122C24.0353 42.1361 23.8181 42.6426 23.723 42.9746C23.6801 43.1248 23.6532 43.27 23.6375 43.4055C23.4138 43.2158 23.0877 42.9785 22.8264 42.8485C22.365 42.734 21.5701 42.8098 20.9392 42.9947L20.8907 42.885C20.3322 43.132 20.1646 43.1977 20.0353 43.2485C19.9946 43.2644 19.9578 43.2788 19.9138 43.297C19.7118 43.3802 19.5017 43.4848 19.0626 43.7081C14.8819 44.2661 12.3062 44.2623 10.3664 43.5751C8.57537 42.9407 6.97589 41.5851 5.14395 38.453C4.96894 37.8669 4.76372 37.3717 4.59336 36.9606C4.56301 36.8874 4.53377 36.8168 4.506 36.7489C4.28955 36.2193 4.06575 35.6364 3.83524 34.7206C3.43734 33.1396 3.00325 30.501 2.67676 25.5245C5.67216 26.0693 8.52316 26.3667 11.6788 26.5507L13.8084 26.6749L14.2661 24.5913C14.9973 21.2623 17.0615 18.0856 20.0854 14.3196C21.0252 13.1493 22.0687 11.9104 23.1707 10.6022C24.9479 8.49234 26.8772 6.20198 28.7683 3.72738C30.9639 6.00461 33.3617 9.26042 35.3504 12.9217C37.9533 17.7139 39.6365 22.8004 39.4913 26.9051ZM24.8145 49.6656C24.8145 49.6655 24.8154 49.6648 24.8172 49.6634C24.8154 49.6649 24.8145 49.6656 24.8145 49.6656Z" stroke="#60D66A" stroke-width="5"/>
</svg>
