<svg width="52" height="41" viewBox="0 0 52 41" fill="none" xmlns="http://www.w3.org/2000/svg">
<path d="M5 39.1887H5.53143V35.6453H7.57402V39.1887H8.10545V35.1132H5V39.1887Z" fill="#343633"/>
<path d="M9.11652 41H9.65157V38.7019C9.79136 38.8881 9.96368 39.0352 10.1685 39.1434C10.3734 39.2491 10.6084 39.3019 10.8735 39.3019C11.2398 39.3019 11.552 39.2075 11.8098 39.0189C12.0677 38.8277 12.2642 38.5698 12.3991 38.2453C12.5365 37.9208 12.6052 37.5547 12.6052 37.1472C12.6052 36.7421 12.5365 36.3774 12.3991 36.0528C12.2642 35.7283 12.0689 35.4717 11.8135 35.283C11.558 35.0943 11.2519 35 10.8952 35C10.606 35 10.3517 35.0604 10.1324 35.1811C9.91548 35.2994 9.73593 35.4642 9.59373 35.6755V35.1132H9.11652V41ZM10.8193 38.7849C10.5421 38.7849 10.3132 38.7145 10.1324 38.5736C9.95163 38.4302 9.81667 38.2352 9.72749 37.9887C9.63832 37.7421 9.59373 37.4616 9.59373 37.1472C9.59373 36.6667 9.69375 36.2755 9.89379 35.9736C10.0962 35.6692 10.4011 35.517 10.8084 35.517C11.088 35.517 11.3182 35.5887 11.4989 35.7321C11.6821 35.8755 11.8183 36.0704 11.9075 36.317C11.9966 36.5635 12.0412 36.8403 12.0412 37.1472C12.0412 37.4566 11.9954 37.7346 11.9038 37.9811C11.8147 38.2277 11.6797 38.4239 11.4989 38.5698C11.3182 38.7132 11.0916 38.7849 10.8193 38.7849Z" fill="#343633"/>
<path d="M16.5009 35.1132H16.0562L13.9124 38.2604V35.1132H13.3954V39.1887H13.8437L15.9839 36.0151V39.1887H16.5009V35.1132Z" fill="#343633"/>
<path d="M17.512 41H18.047V38.7019C18.1868 38.8881 18.3591 39.0352 18.564 39.1434C18.7689 39.2491 19.0038 39.3019 19.269 39.3019C19.6353 39.3019 19.9474 39.2075 20.2053 39.0189C20.4632 38.8277 20.6596 38.5698 20.7946 38.2453C20.9319 37.9208 21.0006 37.5547 21.0006 37.1472C21.0006 36.7421 20.9319 36.3774 20.7946 36.0528C20.6596 35.7283 20.4644 35.4717 20.2089 35.283C19.9534 35.0943 19.6473 35 19.2906 35C19.0014 35 18.7472 35.0604 18.5278 35.1811C18.3109 35.2994 18.1314 35.4642 17.9892 35.6755V35.1132H17.512V41ZM19.2147 38.7849C18.9376 38.7849 18.7086 38.7145 18.5278 38.5736C18.3471 38.4302 18.2121 38.2352 18.1229 37.9887C18.0338 37.7421 17.9892 37.4616 17.9892 37.1472C17.9892 36.6667 18.0892 36.2755 18.2892 35.9736C18.4917 35.6692 18.7966 35.517 19.2039 35.517C19.4835 35.517 19.7136 35.5887 19.8944 35.7321C20.0776 35.8755 20.2137 36.0704 20.3029 36.317C20.3921 36.5635 20.4367 36.8403 20.4367 37.1472C20.4367 37.4566 20.3909 37.7346 20.2993 37.9811C20.2101 38.2277 20.0751 38.4239 19.8944 38.5698C19.7136 38.7132 19.4871 38.7849 19.2147 38.7849Z" fill="#343633"/>
<path d="M23.425 39.3019C23.8106 39.3019 24.1408 39.2113 24.4155 39.0302C24.6927 38.8491 24.9048 38.5975 25.0518 38.2755C25.2012 37.9509 25.2759 37.5748 25.2759 37.1472C25.2759 36.727 25.2024 36.356 25.0554 36.034C24.9108 35.7094 24.6999 35.4566 24.4228 35.2755C24.148 35.0918 23.8154 35 23.425 35C23.0442 35 22.7152 35.0906 22.438 35.2717C22.1633 35.4503 21.9512 35.7006 21.8017 36.0226C21.6523 36.3447 21.5776 36.7195 21.5776 37.1472C21.5776 37.5673 21.6499 37.9396 21.7945 38.2642C21.9415 38.5887 22.1524 38.8428 22.4272 39.0264C22.7043 39.2101 23.0369 39.3019 23.425 39.3019ZM23.425 38.7698C23.0032 38.7698 22.6838 38.6226 22.4669 38.3283C22.25 38.0314 22.1416 37.6377 22.1416 37.1472C22.1416 36.6717 22.2464 36.2843 22.4561 35.9849C22.6658 35.683 22.9887 35.5321 23.425 35.5321C23.8564 35.5321 24.1781 35.6792 24.3902 35.9736C24.6047 36.2654 24.712 36.6566 24.712 37.1472C24.712 37.6277 24.6059 38.0189 24.3938 38.3208C24.1817 38.6201 23.8588 38.7698 23.425 38.7698Z" fill="#343633"/>
<path d="M25.7842 40.0943H26.294V39.1887H29.1644V40.0943H29.6778V38.7132H29.3018V35.1132H26.7206C26.7037 35.5409 26.6856 35.9145 26.6663 36.234C26.647 36.5509 26.6241 36.8327 26.5976 37.0792C26.5711 37.3258 26.5374 37.556 26.4964 37.7698C26.4362 38.0994 26.3578 38.3396 26.2614 38.4906C26.165 38.639 26.006 38.7132 25.7842 38.7132V40.0943ZM26.6844 38.7132C26.7688 38.6302 26.8314 38.5245 26.8724 38.3962C26.9158 38.2679 26.9555 38.1132 26.9917 37.9321C27.0351 37.7459 27.07 37.5182 27.0965 37.2491C27.1255 36.9799 27.1484 36.6994 27.1652 36.4075C27.1845 36.1157 27.2002 35.8428 27.2122 35.5887H28.774V38.7132H26.6844Z" fill="#343633"/>
<path d="M31.3 39.3019C31.9821 39.3019 32.4773 39.039 32.7858 38.5132V39.1887H33.2594V36.6566C33.2594 36.5057 33.2522 36.3572 33.2377 36.2113C33.2233 36.0654 33.1919 35.9333 33.1437 35.8151C33.0401 35.5509 32.863 35.3497 32.6123 35.2113C32.3641 35.0704 32.0616 35 31.7049 35C31.2759 35 30.9264 35.1006 30.6565 35.3019C30.3866 35.5031 30.2058 35.7862 30.1142 36.1509L30.6312 36.3094C30.7059 36.0377 30.8348 35.839 31.018 35.7132C31.2036 35.5874 31.4301 35.5245 31.6977 35.5245C32.0688 35.5245 32.3339 35.6151 32.493 35.7962C32.6521 35.9748 32.734 36.2478 32.7388 36.6151C32.5653 36.6403 32.3737 36.6667 32.164 36.6943C31.9568 36.722 31.7483 36.7535 31.5386 36.7887C31.3289 36.8239 31.1361 36.8642 30.9602 36.9094C30.6685 36.9899 30.4299 37.1245 30.2444 37.3132C30.0588 37.4994 29.966 37.7597 29.966 38.0943C29.966 38.3107 30.0154 38.5107 30.1142 38.6943C30.213 38.878 30.3612 39.0252 30.5589 39.1358C30.7589 39.2465 31.006 39.3019 31.3 39.3019ZM31.3615 38.8226C31.1518 38.8226 30.9831 38.7874 30.8553 38.717C30.73 38.644 30.6384 38.5522 30.5806 38.4415C30.5251 38.3283 30.4974 38.2126 30.4974 38.0943C30.4974 37.873 30.5685 37.7069 30.7107 37.5962C30.8529 37.4855 31.0072 37.405 31.1735 37.3547C31.388 37.2943 31.6374 37.2453 31.9218 37.2075C32.2062 37.1698 32.4761 37.1346 32.7316 37.1019C32.7316 37.195 32.728 37.3019 32.7208 37.4226C32.7159 37.5409 32.7027 37.6503 32.681 37.7509C32.6304 38.0579 32.4906 38.3132 32.2616 38.517C32.0351 38.7208 31.735 38.8226 31.3615 38.8226Z" fill="#343633"/>
<path d="M37.2677 39.3019C37.6557 39.3019 37.9883 39.2075 38.2655 39.0189C38.545 38.8277 38.7583 38.5509 38.9053 38.1887L38.3703 38.0226C38.1727 38.5208 37.8051 38.7698 37.2677 38.7698C36.8483 38.7698 36.5326 38.6226 36.3205 38.3283C36.1084 38.0314 35.9999 37.639 35.9951 37.1509C35.9999 36.6755 36.1048 36.2868 36.3096 35.9849C36.5169 35.683 36.8363 35.5321 37.2677 35.5321C37.5231 35.5321 37.7497 35.6 37.9473 35.7358C38.1474 35.8692 38.2932 36.0579 38.3848 36.3019L38.9053 36.1283C38.7969 35.7786 38.5956 35.5031 38.3016 35.3019C38.01 35.1006 37.6665 35 37.2713 35C36.8832 35 36.5531 35.0906 36.2807 35.2717C36.0084 35.4503 35.7999 35.7019 35.6553 36.0264C35.5107 36.3484 35.436 36.7233 35.4311 37.1509C35.436 37.5686 35.5083 37.9396 35.6481 38.2642C35.7903 38.5887 35.9975 38.8428 36.2699 39.0264C36.5422 39.2101 36.8748 39.3019 37.2677 39.3019Z" fill="#343633"/>
<path d="M39.648 39.1887H40.1794V37.4151H42.3811V39.1887H42.9125V35.1132H42.3811V36.883H40.1794V35.1132H39.648V39.1887Z" fill="#343633"/>
<path d="M45.0406 39.3019C45.7226 39.3019 46.2179 39.039 46.5264 38.5132V39.1887H47V36.6566C47 36.5057 46.9928 36.3572 46.9783 36.2113C46.9638 36.0654 46.9325 35.9333 46.8843 35.8151C46.7807 35.5509 46.6035 35.3497 46.3529 35.2113C46.1046 35.0704 45.8022 35 45.4455 35C45.0165 35 44.667 35.1006 44.3971 35.3019C44.1271 35.5031 43.9464 35.7862 43.8548 36.1509L44.3717 36.3094C44.4465 36.0377 44.5754 35.839 44.7586 35.7132C44.9442 35.5874 45.1707 35.5245 45.4382 35.5245C45.8094 35.5245 46.0745 35.6151 46.2336 35.7962C46.3926 35.9748 46.4746 36.2478 46.4794 36.6151C46.3059 36.6403 46.1143 36.6667 45.9046 36.6943C45.6973 36.722 45.4888 36.7535 45.2792 36.7887C45.0695 36.8239 44.8767 36.8642 44.7007 36.9094C44.4091 36.9899 44.1705 37.1245 43.9849 37.3132C43.7993 37.4994 43.7066 37.7597 43.7066 38.0943C43.7066 38.3107 43.756 38.5107 43.8548 38.6943C43.9536 38.878 44.1018 39.0252 44.2994 39.1358C44.4995 39.2465 44.7465 39.3019 45.0406 39.3019ZM45.102 38.8226C44.8923 38.8226 44.7236 38.7874 44.5959 38.717C44.4706 38.644 44.379 38.5522 44.3211 38.4415C44.2657 38.3283 44.238 38.2126 44.238 38.0943C44.238 37.873 44.3091 37.7069 44.4513 37.5962C44.5935 37.4855 44.7477 37.405 44.914 37.3547C45.1285 37.2943 45.378 37.2453 45.6624 37.2075C45.9468 37.1698 46.2167 37.1346 46.4722 37.1019C46.4722 37.195 46.4686 37.3019 46.4613 37.4226C46.4565 37.5409 46.4433 37.6503 46.4216 37.7509C46.371 38.0579 46.2312 38.3132 46.0022 38.517C45.7757 38.7208 45.4756 38.8226 45.102 38.8226Z" fill="#343633"/>
<path fill-rule="evenodd" clip-rule="evenodd" d="M16.9452 31.7431V26.355C16.9452 26.2889 16.8093 25.4713 16.5175 24.9997C16.2488 24.5656 15.8923 24.2064 15.5962 24.0742C15.3945 23.9841 14.9858 23.8298 14.5762 23.7436C14.0592 23.6348 13.4246 23.6698 13.2271 23.6775C12.8652 23.6916 12.0426 23.7436 11.4175 24.0411C10.9622 24.2578 10.7265 24.4708 10.3646 24.8345C10.0015 25.1992 9.87111 25.4491 9.67358 25.9253C9.49495 26.3559 9.43642 26.6195 9.37745 27.0822C9.31708 27.556 9.3323 27.8298 9.37745 28.3053C9.41337 28.6835 9.43619 28.8992 9.54197 29.2639C9.6595 29.6691 9.74518 29.8989 9.96971 30.2556C10.1984 30.6189 10.367 30.8042 10.6936 31.082C11.0065 31.3481 11.2085 31.4739 11.582 31.6439C11.9486 31.8108 12.1717 31.8771 12.5691 31.9414C13.0511 32.0195 13.3373 32.0195 13.8194 31.9414C14.2167 31.8771 14.4476 31.8269 14.8065 31.6439C15.0703 31.5095 15.4317 31.2142 15.4317 31.2142V31.7431H16.9452ZM13.951 25.3964C13.5322 25.2714 13.2611 25.3122 12.8323 25.3964C12.581 25.4458 12.4337 25.475 12.2071 25.5947C11.9407 25.7356 11.8347 25.8535 11.6478 26.0906C11.3974 26.4081 11.3271 26.6509 11.2529 27.0492C11.1868 27.4045 11.1645 27.614 11.1871 27.9747C11.2075 28.2991 11.2288 28.4889 11.3187 28.8011C11.4274 29.1783 11.5116 29.4077 11.7794 29.6936C12.0286 29.9597 12.2147 30.1073 12.5691 30.1895C12.9968 30.2886 13.1613 30.3217 13.5891 30.2556C13.936 30.202 14.128 30.0996 14.4117 29.892C14.7324 29.6572 14.8257 29.4655 14.9979 29.111L15.0039 29.0986C15.2208 28.6524 15.2488 28.3388 15.2671 27.8425C15.2824 27.4289 15.2671 27.1814 15.2013 26.7847C15.1464 26.4537 15.0768 26.2568 14.8723 25.9914C14.6105 25.6516 14.361 25.5188 13.951 25.3964Z" fill="#343633"/>
<path d="M19.1168 23.9089H20.9594V28.735L24.6117 23.8758H26.224V31.752L24.3814 31.7431V26.7679L20.762 31.7431H19.1342L19.1168 23.9089Z" fill="#343633"/>
<path d="M20.4659 21.9917L21.4201 21C21.4201 21 21.7419 21.2569 21.9794 21.3636C22.1873 21.457 22.3135 21.496 22.5388 21.5289C22.7677 21.5623 22.9007 21.5619 23.131 21.5289C23.3443 21.4983 23.4582 21.4456 23.6575 21.3636C23.8862 21.2695 24.2169 21.0661 24.2169 21.0661L25.204 22.0578C25.204 22.0578 24.6481 22.452 24.2498 22.6197C24.0249 22.7144 23.8938 22.7579 23.6575 22.8181C23.4547 22.8697 23.3397 22.9023 23.131 22.9172C22.9 22.9338 22.7696 22.9375 22.5388 22.9172C22.3197 22.898 22.1941 22.8661 21.9794 22.8181C21.6417 22.7424 21.46 22.655 21.1568 22.4875C20.8663 22.3269 20.4659 21.9917 20.4659 21.9917Z" fill="#343633"/>
<path d="M27.6717 23.8758H34.6472V25.4956H32.0808V31.7431H30.2711V25.4956H27.6717V23.8758Z" fill="#343633"/>
<path fill-rule="evenodd" clip-rule="evenodd" d="M39.3524 23.6775C36.5885 23.6775 35.2724 25.8922 35.5356 28.1731C35.7988 30.4539 36.9505 31.8423 39.3524 31.8753C41.7543 31.9084 43.0648 30.2727 43.2679 28.1731C43.4925 25.8512 42.1163 23.6775 39.3524 23.6775ZM37.3782 27.8756C37.3782 26.525 37.9046 25.3634 39.3853 25.3634C40.8659 25.3634 41.3595 26.4872 41.3595 27.8756C41.3595 29.1715 40.7014 30.3217 39.3524 30.2886C38.0034 30.2556 37.3782 29.1648 37.3782 27.8756Z" fill="#343633"/>
<path d="M44.9263 23.9089H46.7556V26.7517H50.1447V23.8982H52L51.9873 31.7431H50.1447V28.6028H46.7677V31.7563H44.9263V23.9089Z" fill="#343633"/>
<path fill-rule="evenodd" clip-rule="evenodd" d="M0 21.2644V31.7762H1.80968V28.14H4.9684C5.64594 28.0813 6.18733 27.9132 6.71228 27.4789C7.27164 27.0161 7.54977 26.7596 7.83099 26.1236C8.00813 25.723 8.08758 25.4693 8.12712 25.0328C8.1907 24.331 8.12255 23.8887 7.83099 23.2478C7.54308 22.6149 7.22879 22.3022 6.71228 21.8925C6.08712 21.3967 5.10002 21.2644 5.10002 21.2644H0ZM1.80968 26.4211H5.10002C5.10002 26.4211 5.64514 26.1599 5.9226 25.8592C6.24055 25.5146 6.31108 25.2051 6.31744 24.7353C6.32352 24.2863 6.24235 24.014 5.98841 23.6445C5.73415 23.2745 5.34391 23.025 4.9026 22.9503H1.80968V26.4211Z" fill="#343633"/>
<path d="M31.247 9.31837L31.2466 9.33113V9.3439C31.2466 12.2851 29.3765 14.3422 26.7339 14.3422C26.5707 14.3422 26.3809 14.3946 26.2211 14.5359C26.0742 14.6658 26.0123 14.8184 25.9858 14.9147C25.9385 15.0864 25.9601 15.2368 25.9674 15.2861C25.9679 15.2892 25.9684 15.2923 25.9689 15.2954C25.9526 15.2638 25.9282 15.2218 25.8948 15.1784C25.8502 15.1258 25.6997 15.0012 25.5871 14.9431C25.4436 14.9062 25.1972 14.9304 25.0033 14.989L24.9876 14.9547C24.8001 15.0408 24.7431 15.064 24.7 15.0816C24.6866 15.087 24.6745 15.0919 24.6603 15.098C24.5941 15.1263 24.5254 15.162 24.3717 15.2432C22.9716 15.4379 22.0987 15.4393 21.4361 15.1955C20.8148 14.967 20.2641 14.4758 19.6413 13.3661C19.5843 13.1645 19.5165 12.9945 19.4582 12.8482C19.4479 12.8226 19.438 12.7977 19.4285 12.7735C19.355 12.5868 19.278 12.3786 19.1992 12.0532C19.0601 11.4794 18.9104 10.5211 18.8004 8.70147C19.8336 8.90201 20.8103 9.00958 21.8961 9.07535L22.5414 9.11443L22.6752 8.48192C22.9259 7.2968 23.6304 6.1777 24.6387 4.87375C24.9549 4.46481 25.3044 4.03395 25.6726 3.57998C26.2801 2.83109 26.9387 2.01929 27.5829 1.13921C28.338 1.93842 29.1672 3.09987 29.8512 4.40747C30.7229 6.07405 31.2967 7.86053 31.247 9.31837ZM26.1681 16.0618C26.1301 15.9143 26.1001 15.7828 26.0782 15.6824C26.1522 15.8853 26.2588 16.134 26.3535 16.3543L26.366 16.3833C26.4507 16.5803 26.5262 16.7562 26.581 16.8956C26.5529 16.9492 26.5264 16.9964 26.5016 17.0381C26.3672 16.7606 26.2528 16.3914 26.1681 16.0618ZM26.3103 17.2927C26.3103 17.2927 26.3109 17.2922 26.3122 17.2913C26.3109 17.2923 26.3103 17.2927 26.3103 17.2927Z" stroke="#42B649" stroke-width="1.5"/>
</svg>
