<svg width="128" height="28" viewBox="0 0 128 28" fill="none" xmlns="http://www.w3.org/2000/svg">
<path d="M1.6389 0.730711C1.21403 0.377856 0.583566 0.436232 0.230711 0.861099C-0.122144 1.28597 -0.0637676 1.91643 0.361099 2.26929L1.6389 0.730711ZM127.452 13.306C127.621 12.7802 127.332 12.217 126.806 12.048L118.238 9.29389C117.712 9.12488 117.149 9.41412 116.98 9.93991C116.811 10.4657 117.1 11.0289 117.626 11.1979L125.242 13.646L122.794 21.2622C122.625 21.788 122.914 22.3513 123.44 22.5203C123.966 22.6893 124.529 22.4001 124.698 21.8743L127.452 13.306ZM0.361099 2.26929C20.2206 18.7628 70.9838 42.6325 126.957 13.8896L126.043 12.1104C71.0162 40.3675 21.1127 16.9039 1.6389 0.730711L0.361099 2.26929Z" fill="#45AC34"/>
</svg>
