<svg width="50" height="50" viewBox="0 0 50 50" fill="none" xmlns="http://www.w3.org/2000/svg">
<path fill-rule="evenodd" clip-rule="evenodd" d="M24.0702 1.10654C23.88 1.17972 23.5475 1.3307 23.3312 1.44195C23.1149 1.5532 22.7233 1.88371 22.461 2.17644C22.0529 2.63174 21.5696 3.57941 19.1143 8.73852L16.2446 14.7685L9.61833 15.7625C5.20979 16.4237 2.81023 16.825 2.44874 16.9614C2.15 17.0741 1.69211 17.3599 1.43121 17.5964C1.17031 17.8329 0.807076 18.3051 0.623999 18.6457C0.311347 19.2272 0.291016 19.3219 0.291016 20.197C0.291016 21.0125 0.325063 21.2025 0.563589 21.7176C0.803185 22.2347 1.43695 22.9136 5.78373 27.3094L10.7312 32.3126L9.61726 38.9836C8.73602 44.2608 8.51101 45.798 8.54 46.3413C8.56209 46.7537 8.65859 47.2141 8.78164 47.4941C8.89429 47.7504 9.20908 48.1974 9.48107 48.4875C9.80131 48.829 10.1888 49.1131 10.5809 49.2938C11.0462 49.5083 11.3687 49.5814 11.975 49.6098C12.6376 49.6408 12.8564 49.609 13.343 49.4108C13.6616 49.281 16.4182 47.8199 19.4688 46.1639C22.5194 44.5079 25.074 43.153 25.1456 43.153C25.2172 43.153 27.7718 44.5079 30.8223 46.1639C33.873 47.8199 36.6295 49.281 36.9481 49.4108C37.4347 49.609 37.6536 49.6408 38.3161 49.6098C38.9225 49.5814 39.245 49.5083 39.7102 49.2938C40.1024 49.1131 40.4898 48.829 40.8101 48.4875C41.0821 48.1974 41.3968 47.7504 41.5095 47.4941C41.6317 47.2162 41.7297 46.7508 41.7524 46.3413C41.7827 45.7944 41.5633 44.2968 40.6744 38.9836L39.5583 32.3126L44.5066 27.3094C48.8546 22.9132 49.488 22.2348 49.7276 21.7176C49.9661 21.2025 50.0001 21.0125 50.0001 20.197C50.0001 19.3219 49.9798 19.2272 49.6671 18.6457C49.4841 18.3051 49.1208 17.8329 48.8599 17.5964C48.599 17.3599 48.1411 17.0741 47.8424 16.9614C47.4809 16.825 45.0807 16.4236 40.6728 15.7623L34.0465 14.7681L31.1768 8.73773C28.6305 3.38683 28.2499 2.6443 27.7995 2.14731C27.4485 1.76 27.1033 1.50003 26.6808 1.305C26.1851 1.07603 25.9136 1.01815 25.2428 0.998136C24.724 0.982635 24.2872 1.02296 24.0702 1.10654ZM28.0728 10.6974C30.6807 16.1677 30.9783 16.7447 31.4386 17.2241C31.7273 17.5248 32.1689 17.854 32.4696 17.9928C32.9061 18.1944 34.1273 18.405 39.6495 19.2312C43.3092 19.7788 46.3203 20.2405 46.3407 20.2575C46.3611 20.2744 44.1617 22.5082 41.4529 25.2213C37.0473 29.6342 36.5 30.2165 36.2625 30.743C36.0658 31.1793 35.9894 31.522 35.9672 32.0674C35.9435 32.6494 36.167 34.1822 37.0363 39.4022C37.8951 44.5594 38.104 45.9892 37.9923 45.9459C37.9137 45.9155 35.5054 44.618 32.6405 43.0625C29.7756 41.507 27.1471 40.0854 26.7993 39.9033C26.1986 39.5888 26.1159 39.5722 25.1456 39.5722C24.1752 39.5722 24.0925 39.5888 23.4918 39.9033C23.1441 40.0854 20.5155 41.507 17.6507 43.0625C14.7857 44.618 12.3762 45.916 12.2961 45.947C12.1808 45.9917 12.3802 44.6283 13.2527 39.4033C14.1279 34.1627 14.3487 32.6516 14.3245 32.0674C14.3019 31.5222 14.2251 31.1792 14.028 30.743C13.7906 30.2173 13.2361 29.6269 8.8403 25.2187C6.13334 22.5041 3.93408 20.2704 3.95305 20.2549C3.97202 20.2394 6.9819 19.7788 10.6416 19.2312C16.1639 18.405 17.385 18.1944 17.8215 17.9928C18.1218 17.8542 18.5643 17.5245 18.8526 17.2245C19.3131 16.7453 19.6093 16.171 22.2184 10.6979C23.7918 7.39726 25.1091 4.6968 25.1457 4.6968C25.1821 4.6968 26.4993 7.39707 28.0728 10.6974Z" fill="#1E508B"/>
<path d="M13.38 15.326C12.8146 14.8517 11.9882 14.8592 11.4314 15.3436C10.8747 15.828 10.753 16.6455 11.1445 17.271L23.4742 36.9709C23.7469 37.4067 24.2238 37.6724 24.7378 37.6751C25.2519 37.6778 25.7315 37.417 26.0088 36.9841L43.9896 8.91183C44.4058 8.26202 44.261 7.40246 43.655 6.92476C43.049 6.44706 42.1794 6.50709 41.6448 7.06355L24.6354 24.7673L13.38 15.326Z" fill="#1E508B" stroke="#EBDCB5" stroke-width="3" stroke-linejoin="round"/>
</svg>
