<svg width="20" height="18" viewBox="0 0 20 18" fill="none" xmlns="http://www.w3.org/2000/svg">
<path fill-rule="evenodd" clip-rule="evenodd" d="M14.2067 0.108427C14.101 0.167773 13.03 0.855638 11.8269 1.63702C10.6238 2.41841 9.57798 3.11321 9.50293 3.18099C9.42784 3.24878 9.33591 3.36119 9.29861 3.4308C9.24337 3.53392 9.23077 3.92291 9.23077 5.52852V7.49967H7.69231H6.15385V4.76434V2.029L6.04452 1.87084C5.98442 1.78384 5.86221 1.66468 5.77298 1.60608C5.61159 1.5 5.60202 1.49949 3.84615 1.49949C2.09029 1.49949 2.08072 1.5 1.91933 1.60608C1.8301 1.66468 1.70788 1.78384 1.64779 1.87084L1.53846 2.029V4.76434V7.49967H1.04077C0.602692 7.49967 0.523606 7.51242 0.380865 7.60627C0.291635 7.66487 0.169423 7.78403 0.109327 7.87103L0 8.02919V12.7498V17.4705L0.109327 17.6286C0.169423 17.7156 0.291635 17.8348 0.380865 17.8934L0.543077 18H10H19.4569L19.6191 17.8934C19.7084 17.8348 19.8306 17.7156 19.8907 17.6286L20 17.4705V10.5139C20 4.6171 19.9897 3.5381 19.9322 3.4308C19.8949 3.36119 19.8029 3.24878 19.7278 3.18099C19.6528 3.11321 18.5844 2.40406 17.3537 1.60515C16.123 0.806184 15.0478 0.118084 14.9643 0.0759892C14.8808 0.0338941 14.7194 -0.000325795 14.6058 2.34032e-06C14.4787 0.000330476 14.325 0.0421441 14.2067 0.108427ZM16.5823 2.94989L18.4615 4.17205V10.336V16.5H10H1.53846V12.7498V8.99972H2.03615C2.47423 8.99972 2.55332 8.98697 2.69606 8.89312C2.78529 8.83453 2.9075 8.71537 2.9676 8.62837L3.07692 8.4702V5.73487V2.99953H3.84615H4.61538V5.73487V8.4702L4.72471 8.62837C4.78481 8.71537 4.90702 8.83453 4.99625 8.89312L5.15846 8.99972H7.69231H10.2262L10.3884 8.89312C10.4776 8.83453 10.5998 8.71537 10.6599 8.62837L10.7692 8.4702V6.32101V4.17182L12.6803 2.92908C13.7314 2.24557 14.6165 1.69566 14.6472 1.70706C14.6779 1.71845 15.5487 2.27773 16.5823 2.94989ZM12.3077 5.2496V5.99963H13.0769H13.8462V5.2496V4.49958H13.0769H12.3077V5.2496ZM15.3846 5.2496V5.99963H16.1538H16.9231V5.2496V4.49958H16.1538H15.3846V5.2496ZM12.3077 8.2497V8.99972H13.0769H13.8462V8.2497V7.49967H13.0769H12.3077V8.2497ZM15.3846 8.2497V8.99972H16.1538H16.9231V8.2497V7.49967H16.1538H15.3846V8.2497ZM3.07692 11.2498V11.9998H4.61538H6.15385V11.2498V10.4998H4.61538H3.07692V11.2498ZM7.69231 11.2498V11.9998H9.23077H10.7692V11.2498V10.4998H9.23077H7.69231V11.2498ZM12.3077 11.2498V11.9998H13.0769H13.8462V11.2498V10.4998H13.0769H12.3077V11.2498ZM15.3846 11.2498V11.9998H16.1538H16.9231V11.2498V10.4998H16.1538H15.3846V11.2498ZM12.3077 14.2499V14.9999H13.0769H13.8462V14.2499V13.4999H13.0769H12.3077V14.2499ZM15.3846 14.2499V14.9999H16.1538H16.9231V14.2499V13.4999H16.1538H15.3846V14.2499Z" fill="#474747"/>
</svg>
