<svg width="20" height="24" viewBox="0 0 20 24" fill="none" xmlns="http://www.w3.org/2000/svg">
<path fill-rule="evenodd" clip-rule="evenodd" d="M12.6975 0.0988596C12.8051 0.153235 12.9364 0.259782 12.9894 0.335626C13.0423 0.411516 13.312 0.88908 13.5887 1.39692C13.8654 1.90477 14.1093 2.33836 14.1308 2.36049C14.1523 2.38261 14.6643 2.49094 15.2685 2.60124C15.8729 2.71149 16.431 2.83533 16.5088 2.87644C16.5867 2.91751 16.7121 3.02762 16.7877 3.12113C16.8632 3.21465 16.9502 3.38293 16.9809 3.49505C17.0285 3.66826 17.0183 3.8596 16.9136 4.76743C16.8458 5.3551 16.7865 5.88179 16.7819 5.9379C16.7758 6.01145 16.972 6.25164 17.4854 6.79933C17.877 7.21708 18.2514 7.63942 18.3174 7.73791C18.3834 7.83634 18.4511 8.00373 18.4677 8.10981C18.4843 8.21589 18.477 8.38047 18.4515 8.47553C18.426 8.57064 18.3659 8.71169 18.3178 8.78903C18.2698 8.86638 17.9078 9.2831 17.5135 9.71505C17.1191 10.147 16.7964 10.5285 16.7964 10.5628C16.7964 10.5971 16.8583 11.0663 16.9339 11.6055C17.0096 12.1447 17.0716 12.69 17.0717 12.8172C17.0719 12.9583 17.0337 13.1294 16.9736 13.256C16.9183 13.3725 16.7982 13.5178 16.6997 13.5872C16.6032 13.6553 16.5235 13.7275 16.5226 13.7477C16.5216 13.7679 17.2464 15.0968 18.1332 16.7008C19.02 18.3048 19.8075 19.729 19.8833 19.8656C19.9911 20.0601 20.0148 20.148 19.9923 20.2705C19.9764 20.3566 19.9095 20.4821 19.8435 20.5494C19.7775 20.6168 19.6695 20.675 19.6035 20.6788C19.5374 20.6826 19.4524 20.6901 19.4145 20.6953C19.3766 20.7006 18.5499 20.7082 17.5773 20.7124L15.8089 20.7199L15.3301 21.5748C15.0669 22.045 14.6768 22.7378 14.4633 23.1144C14.1991 23.5805 14.032 23.8252 13.9398 23.8807C13.8477 23.9362 13.7564 23.9531 13.6542 23.9336C13.5716 23.9177 13.4618 23.8577 13.4102 23.8001C13.3587 23.7425 13.0688 23.2629 12.766 22.7344C12.4632 22.2059 11.9005 21.225 11.5155 20.5547C11.1305 19.8844 10.6379 19.0249 10.4206 18.6447C10.2034 18.2645 10.0112 17.9692 9.99338 17.9885C9.97556 18.0077 9.23354 19.3101 8.34444 20.8828C7.45534 22.4555 6.6677 23.8002 6.59412 23.8711C6.50175 23.9601 6.41158 24 6.30286 24C6.20429 24 6.09897 23.9593 6.02135 23.8911C5.95314 23.8312 5.52134 23.0982 5.06183 22.2622L4.22638 20.7422L2.299 20.7187C0.560619 20.6976 0.359529 20.6872 0.248375 20.6129C0.18058 20.5675 0.0920258 20.465 0.0515137 20.3851C0.00976181 20.3027 -0.0102634 20.1919 0.00521469 20.1289C0.0202351 20.0679 0.195232 19.7274 0.39407 19.3723C0.592909 19.0171 1.22544 17.8828 1.79972 16.8515C2.374 15.8203 2.98958 14.7171 3.1677 14.4L3.49152 13.8234L3.31836 13.6777C3.22314 13.5976 3.10602 13.4387 3.05811 13.3246C3.0102 13.2105 2.9713 13.0293 2.97167 12.9219C2.97203 12.8144 3.02352 12.3047 3.08608 11.789C3.14864 11.2734 3.19903 10.7988 3.19797 10.7343C3.19659 10.6475 2.99472 10.405 2.41768 9.79685C1.86214 9.21142 1.61769 8.91939 1.56386 8.77699C1.51191 8.6396 1.4968 8.50534 1.51531 8.34592C1.5301 8.21856 1.57369 8.05225 1.61213 7.97631C1.65063 7.90033 2.02433 7.46172 2.44263 7.00159C3.0921 6.28712 3.19967 6.14781 3.17974 6.04731C3.16688 5.98262 3.09325 5.46207 3.01613 4.89062C2.89753 4.01227 2.88394 3.81882 2.92817 3.63948C2.95697 3.5228 3.05094 3.34337 3.13702 3.24076C3.22663 3.13388 3.37665 3.02297 3.48821 2.98112C3.59528 2.9409 4.11697 2.82202 4.64748 2.71697C5.178 2.61197 5.64475 2.51635 5.68471 2.50449C5.72467 2.49268 5.86146 2.28821 5.98864 2.05008C6.11583 1.81196 6.37066 1.33533 6.55494 0.990846C6.8083 0.517314 6.93397 0.332063 7.07011 0.231422C7.16918 0.158203 7.34358 0.0840002 7.45768 0.0665158C7.58188 0.0475314 7.74167 0.0579376 7.85581 0.0923908C7.96063 0.124125 8.47465 0.351094 8.99804 0.596861L9.9497 1.04372L10.9965 0.521814C11.9037 0.0695627 12.0739 -4.68514e-05 12.2726 2.36464e-08C12.4132 2.36464e-08 12.5775 0.0382501 12.6975 0.0988596ZM11.2089 1.53071C10.3121 1.977 10.1784 2.03039 9.9526 2.03218C9.73667 2.03391 9.60329 1.98914 9.03396 1.72388C8.66766 1.55316 8.1913 1.33046 7.97538 1.22888L7.5828 1.04424L7.08517 2.01038C6.81151 2.54176 6.53753 3.0451 6.47639 3.12891C6.41521 3.21273 6.30272 3.31426 6.22643 3.35452C6.15009 3.39479 5.59161 3.52988 4.98536 3.65471C4.37911 3.77954 3.87207 3.89288 3.85861 3.90662C3.84515 3.92035 3.89829 4.39613 3.9767 4.96388C4.0551 5.53164 4.11927 6.09803 4.11927 6.22253C4.11927 6.34867 4.08234 6.52281 4.0359 6.61576C3.99006 6.70754 3.62316 7.14555 3.22062 7.58908C2.81807 8.03261 2.4818 8.41548 2.4734 8.43986C2.46499 8.46428 2.8082 8.84852 3.23609 9.29374C3.66395 9.739 4.04807 10.1704 4.08964 10.2524C4.13461 10.3412 4.16497 10.5116 4.16461 10.6734C4.16424 10.8229 4.11256 11.3654 4.04978 11.8789C3.98694 12.3923 3.93554 12.8478 3.93554 12.891C3.93554 12.957 4.10214 12.9976 4.98049 13.1455C5.55523 13.2423 6.1105 13.3591 6.21444 13.4052C6.31839 13.4514 6.46146 13.5633 6.53238 13.654C6.6033 13.7447 6.88335 14.2242 7.15467 14.7194C7.42603 15.2148 7.66584 15.6381 7.68761 15.6604C7.7098 15.683 8.18046 15.4742 8.75653 15.1863C9.63323 14.7482 9.81871 14.6719 10.0072 14.6719C10.1869 14.6719 10.3686 14.7389 10.9747 15.0288C11.3852 15.2251 11.8674 15.455 12.0462 15.5396L12.3715 15.6935L12.8959 14.6847C13.3013 13.905 13.4649 13.6359 13.6161 13.4996C13.8026 13.3316 13.8464 13.3167 14.5577 13.1793C14.968 13.1 15.4949 13 15.7285 12.9569C16.0738 12.8934 16.1534 12.8633 16.1534 12.7965C16.1534 12.7512 16.0914 12.2768 16.0156 11.7422C15.9398 11.2076 15.8778 10.6705 15.8778 10.5487C15.8778 10.4081 15.9155 10.2558 15.9811 10.1318C16.038 10.0243 16.3553 9.63607 16.6864 9.26899C17.0175 8.90186 17.3442 8.5338 17.4125 8.45097L17.5365 8.30045L16.7876 7.49931C16.3756 7.05869 15.9922 6.62022 15.9354 6.52487C15.869 6.41322 15.8323 6.27648 15.8323 6.14059C15.8323 6.02457 15.8835 5.49723 15.9461 4.96871C16.0087 4.4402 16.0603 3.95424 16.0607 3.88885C16.0615 3.77021 16.0586 3.76937 15.0166 3.58852C14.4419 3.48882 13.873 3.36549 13.7525 3.31458C13.6251 3.26073 13.4792 3.15099 13.4039 3.05237C13.3327 2.95908 13.0505 2.46615 12.7768 1.95699C12.503 1.44778 12.2641 1.03121 12.2458 1.03121C12.2275 1.03121 11.7609 1.25597 11.2089 1.53071ZM10.8295 3.68218C11.0213 3.71762 11.3313 3.8027 11.5185 3.87127C11.7056 3.93985 11.9621 4.04855 12.0884 4.11287C12.2147 4.17718 12.4535 4.32104 12.619 4.4326C12.7845 4.54412 13.076 4.79213 13.2668 4.98371C13.4576 5.17534 13.7299 5.51026 13.8719 5.728C14.0138 5.94578 14.1811 6.23842 14.2435 6.37834C14.3059 6.51831 14.4099 6.82004 14.4745 7.04894C14.5392 7.27783 14.6132 7.65466 14.6389 7.88627C14.6711 8.17628 14.6705 8.45917 14.6371 8.7947C14.6103 9.06274 14.5374 9.46197 14.4749 9.68186C14.4125 9.90175 14.2866 10.2338 14.1952 10.4197C14.1037 10.6057 13.954 10.8736 13.8625 11.0151C13.7709 11.1566 13.5617 11.4182 13.3975 11.5963C13.2333 11.7744 12.9687 12.0208 12.8096 12.1439C12.6505 12.2671 12.3392 12.4633 12.1178 12.58C11.8964 12.6967 11.5387 12.8444 11.3227 12.9082C11.1068 12.9721 10.7252 13.0487 10.4746 13.0784C10.1369 13.1185 9.90125 13.1191 9.56411 13.0807C9.31392 13.0522 8.99414 12.996 8.85345 12.9558C8.71272 12.9156 8.48816 12.8422 8.35436 12.7928C8.22056 12.7433 8.0242 12.6577 7.91801 12.6026C7.81181 12.5475 7.60985 12.4228 7.46921 12.3256C7.32856 12.2283 7.09725 12.0467 6.95519 11.922C6.81312 11.7973 6.56651 11.5343 6.40708 11.3375C6.2477 11.1407 6.0286 10.8096 5.92021 10.6017C5.81181 10.3938 5.67162 10.0697 5.6087 9.88141C5.54577 9.69311 5.46392 9.36227 5.42686 9.14617C5.38974 8.93008 5.35943 8.56858 5.35943 8.34274C5.35943 8.11694 5.39217 7.75609 5.43218 7.54089C5.47219 7.32564 5.54742 7.02273 5.59937 6.86772C5.65132 6.71275 5.76606 6.43825 5.85439 6.25778C5.94267 6.07731 6.09213 5.81364 6.18643 5.67184C6.28077 5.53004 6.45885 5.29946 6.58213 5.1594C6.70541 5.01938 6.95248 4.78613 7.13115 4.6411C7.30982 4.49607 7.64053 4.28106 7.86606 4.16331C8.09158 4.0456 8.40484 3.9046 8.56215 3.85004C8.71951 3.79543 9.02707 3.71898 9.24566 3.68007C9.46425 3.64116 9.83161 3.61121 10.062 3.61355C10.2923 3.61585 10.6377 3.64674 10.8295 3.68218ZM9.05693 4.71062C8.90535 4.75295 8.61438 4.86938 8.4103 4.96932C8.20627 5.06931 7.89623 5.26571 7.72133 5.40578C7.54646 5.54589 7.29719 5.79489 7.16739 5.95914C7.03759 6.12339 6.85795 6.39489 6.76824 6.56247C6.67849 6.73004 6.55062 7.0359 6.48406 7.24215C6.39362 7.52247 6.35656 7.75351 6.33727 8.1573C6.31793 8.56122 6.33061 8.79395 6.38747 9.08036C6.42931 9.29102 6.52182 9.60958 6.59311 9.78827C6.66435 9.967 6.81941 10.2617 6.93764 10.4433C7.05591 10.6248 7.31722 10.9313 7.5184 11.1244C7.7995 11.3943 7.99389 11.5312 8.35863 11.7162C8.69154 11.885 8.96249 11.9841 9.26656 12.0481C9.50495 12.0983 9.82399 12.1395 9.97556 12.1396C10.1271 12.1398 10.3811 12.1184 10.5399 12.0921C10.6987 12.0658 10.988 11.9926 11.1829 11.9295C11.3778 11.8664 11.7003 11.7171 11.8996 11.5977C12.1095 11.472 12.411 11.2298 12.6159 11.0223C12.8127 10.823 13.0557 10.515 13.1635 10.3281C13.2702 10.1433 13.4 9.87968 13.4519 9.74219C13.5039 9.60466 13.5744 9.37614 13.6088 9.23435C13.6431 9.09255 13.6843 8.79724 13.7003 8.57809C13.7207 8.29933 13.707 8.04775 13.6544 7.74053C13.6131 7.49898 13.5161 7.1463 13.4388 6.95678C13.3615 6.76722 13.215 6.48086 13.1134 6.32036C13.0117 6.15986 12.8019 5.89389 12.647 5.72931C12.4922 5.56473 12.2308 5.33917 12.0662 5.22807C11.9016 5.11693 11.6157 4.96079 11.431 4.88106C11.2463 4.80128 10.9569 4.70438 10.788 4.66571C10.5719 4.61631 10.3105 4.60112 9.90666 4.61452C9.57586 4.62549 9.21571 4.66623 9.05693 4.71062ZM14.8675 14.0853C14.4899 14.1557 14.2285 14.2275 14.1988 14.269C14.1719 14.3065 13.9238 14.7642 13.6474 15.2862C13.371 15.8082 13.0771 16.3028 12.9943 16.3853C12.9115 16.4679 12.751 16.5619 12.6377 16.5943C12.5243 16.6267 12.3431 16.6408 12.235 16.6257C12.1268 16.6105 11.8141 16.4913 11.5399 16.3606C11.2658 16.23 11.037 16.1288 11.0315 16.1358C11.026 16.1427 10.9257 16.3192 10.8086 16.528C10.6915 16.7368 10.5956 16.9201 10.5956 16.9354C10.5956 16.9507 10.9743 17.6342 11.437 18.4543C11.8997 19.2743 12.5969 20.5104 12.9864 21.2011C13.6164 22.3184 13.7011 22.4477 13.7547 22.373C13.7878 22.3268 14.1163 21.7573 14.4847 21.1073C14.8531 20.4574 15.1954 19.8879 15.2453 19.8417C15.3281 19.7652 15.4858 19.7557 17.0267 19.7344L18.7172 19.7109L17.2485 17.0625C16.4407 15.6058 15.7243 14.3139 15.6565 14.1914C15.5887 14.069 15.523 13.9691 15.5103 13.9693C15.4977 13.9696 15.2084 14.0218 14.8675 14.0853ZM3.88493 15.0469C3.59073 15.5754 2.88545 16.841 2.3176 17.8594L1.28515 19.7109L2.97681 19.7344L4.66847 19.7578L4.77903 19.875C4.8398 19.9394 5.2056 20.5668 5.59189 21.2691C5.97822 21.9714 6.29822 22.5409 6.30309 22.5347C6.30796 22.5285 6.88022 21.5215 7.57476 20.2969C8.26934 19.0723 9.13083 17.5479 9.48924 16.9094C9.8476 16.2709 10.1283 15.7277 10.1129 15.7024C10.0976 15.677 10.0676 15.6562 10.0463 15.6562C10.025 15.6562 9.53568 15.8883 8.95882 16.1719C8.09461 16.5967 7.8735 16.6873 7.70263 16.6865C7.58858 16.6859 7.41257 16.6464 7.31152 16.5986C7.21047 16.5509 7.07291 16.4511 7.00585 16.377C6.93874 16.3028 6.66586 15.8414 6.39941 15.3515C6.13296 14.8617 5.88806 14.4235 5.85517 14.3777C5.81374 14.3201 5.62592 14.26 5.24437 14.1822C4.94136 14.1205 4.63187 14.0735 4.55659 14.0779C4.42867 14.0854 4.38508 14.1483 3.88493 15.0469Z" fill="#474747"/>
</svg>
