<svg width="20" height="20" viewBox="0 0 20 20" fill="none" xmlns="http://www.w3.org/2000/svg">
<path fill-rule="evenodd" clip-rule="evenodd" d="M9.6175 0.107428C9.52961 0.166532 9.25008 0.393342 8.99641 0.611439C8.74273 0.829576 8.27988 1.26905 7.96789 1.58805C7.6559 1.9071 7.25055 2.35267 7.06711 2.57826C6.88371 2.80386 6.62504 3.14025 6.49234 3.32584C6.35965 3.5114 6.13488 3.85419 5.99285 4.0876C5.85082 4.32098 5.63074 4.72744 5.50379 4.99086C5.3768 5.25423 5.19516 5.7025 5.10012 5.987C5.00508 6.27147 4.88977 6.68853 4.84387 6.91377C4.79797 7.13902 4.75723 7.32544 4.75328 7.32801C4.74934 7.33059 4.59668 7.38024 4.41406 7.43837C4.23145 7.49646 3.91504 7.62303 3.71094 7.71964C3.50684 7.8162 3.20801 7.97684 3.04688 8.07653C2.88574 8.17626 2.63086 8.35459 2.48047 8.47284C2.33008 8.59113 2.0866 8.80302 1.93941 8.9438C1.79223 9.08455 1.5532 9.34914 1.40832 9.53176C1.2634 9.71439 1.07824 9.9689 0.996875 10.0973C0.915547 10.2257 0.764883 10.4982 0.662148 10.7028C0.559375 10.9074 0.42125 11.2296 0.355234 11.4187C0.28918 11.6078 0.208203 11.8787 0.175234 12.0208C0.142305 12.1629 0.089375 12.4519 0.0576562 12.6631C0.0259375 12.8743 0 13.2758 0 13.5554C0 13.835 0.0270312 14.2439 0.0600781 14.4639C0.093125 14.684 0.147187 14.9696 0.180234 15.0985C0.21332 15.2274 0.292461 15.4813 0.356172 15.6628C0.419844 15.8443 0.576992 16.1958 0.705391 16.4441C0.83375 16.6923 1.05266 17.0494 1.19187 17.2375C1.33105 17.4256 1.58125 17.7224 1.74785 17.897C1.91445 18.0716 2.17383 18.3146 2.32422 18.437C2.47461 18.5594 2.72949 18.7471 2.89062 18.8542C3.05176 18.9613 3.30168 19.1131 3.44598 19.1915C3.59027 19.2699 3.85395 19.3939 4.03191 19.4669C4.20988 19.5399 4.46973 19.6369 4.60938 19.6823C4.74902 19.7277 4.98633 19.7933 5.13672 19.8281C5.28711 19.8628 5.57715 19.9155 5.78125 19.9449C6.07527 19.9874 6.94066 19.9989 9.94769 19.9998C13.5649 20.001 13.7542 19.9976 13.9808 19.9271C14.1116 19.8863 14.3052 19.7975 14.411 19.7296C14.5168 19.6617 14.6724 19.5313 14.7567 19.4398C14.841 19.3483 14.9552 19.1955 15.0105 19.1001C15.0658 19.0048 15.1409 18.8229 15.1773 18.696C15.2259 18.5266 15.238 18.381 15.2228 18.1491C15.2113 17.9752 15.1896 17.7935 15.1746 17.7451C15.1472 17.6573 15.1477 17.6572 15.617 17.6572C15.9684 17.6572 16.1467 17.6385 16.3246 17.5832C16.4554 17.5425 16.6489 17.4536 16.7548 17.3857C16.8606 17.3178 17.0161 17.1874 17.1005 17.0959C17.1848 17.0044 17.299 16.8516 17.3543 16.7563C17.4096 16.6609 17.4846 16.4791 17.521 16.3521C17.5696 16.1828 17.5818 16.0372 17.5665 15.8052C17.5551 15.6314 17.5334 15.4496 17.5183 15.4012L17.4909 15.3133H17.9962C18.3421 15.3133 18.5683 15.2938 18.7136 15.2514C18.8303 15.2173 19.0038 15.1443 19.0991 15.0892C19.1944 15.0341 19.3473 14.9199 19.4387 14.8356C19.5302 14.7513 19.6606 14.5957 19.7285 14.4899C19.7964 14.3841 19.8853 14.1905 19.926 14.0597C19.9677 13.9256 20 13.7073 20 13.559C20 13.4144 19.972 13.2007 19.9378 13.084C19.9035 12.9673 19.8254 12.7839 19.7642 12.6765C19.703 12.569 19.5684 12.3999 19.4651 12.3005C19.3618 12.2012 19.1982 12.0752 19.1016 12.0206C19.0049 11.966 18.8303 11.8935 18.7136 11.8594C18.5683 11.817 18.3421 11.7975 17.9962 11.7975H17.4909L17.5183 11.7096C17.5334 11.6613 17.5551 11.4795 17.5665 11.3056C17.5818 11.0737 17.5696 10.9281 17.521 10.7587C17.4846 10.6318 17.41 10.4488 17.3553 10.3521C17.3005 10.2554 17.1745 10.0918 17.0752 9.98855C16.9758 9.88526 16.8066 9.75064 16.6992 9.68943C16.5918 9.62822 16.4084 9.55013 16.2917 9.51587C16.1552 9.47583 15.9288 9.45364 15.657 9.45364H15.2344V8.90872C15.2344 8.60902 15.2077 8.16032 15.1751 7.9116C15.1425 7.66284 15.0561 7.22688 14.9832 6.94272C14.9102 6.6586 14.7717 6.22397 14.6754 5.97689C14.579 5.7298 14.4281 5.37205 14.3399 5.18188C14.2518 4.99172 14.0795 4.65771 13.9571 4.43965C13.8346 4.2216 13.6117 3.85861 13.4616 3.63301C13.3115 3.40741 13.092 3.09099 12.9737 2.92985C12.8554 2.7687 12.5916 2.4347 12.3873 2.18762C12.1831 1.94053 11.7064 1.42879 11.328 1.05045C10.9496 0.672068 10.5293 0.280914 10.3938 0.18126C10.1827 0.0257436 10.1214 0 9.9625 0C9.82535 0 9.73598 0.027814 9.6175 0.107428ZM9.375 4.49243V7.10976H7.6927C6.10863 7.10976 6.01156 7.10577 6.03109 7.0414C6.0425 7.00378 6.06973 6.89127 6.0916 6.79138C6.11348 6.69146 6.19375 6.4375 6.26992 6.22702C6.34609 6.01658 6.50301 5.65003 6.61859 5.41256C6.73422 5.17505 6.96535 4.76979 7.13227 4.51196C7.29918 4.25414 7.55031 3.89377 7.69031 3.71114C7.83035 3.52851 8.05875 3.24725 8.19793 3.0861C8.33707 2.92496 8.65418 2.58659 8.90258 2.33411C9.15102 2.08164 9.35891 1.8751 9.36461 1.8751C9.37031 1.8751 9.375 3.0529 9.375 4.49243ZM11.0064 2.43177C11.2458 2.69495 11.5656 3.0661 11.717 3.25654C11.8683 3.44694 11.9922 3.61414 11.9922 3.62805C11.9922 3.64195 11.667 3.97818 11.2695 4.37524L10.5469 5.09715V3.52519C10.5469 2.66061 10.5523 1.95323 10.559 1.95323C10.5657 1.95323 10.767 2.16859 11.0064 2.43177ZM12.9195 5.02894C13.0265 5.21727 13.2112 5.58233 13.33 5.84016C13.4487 6.09799 13.6164 6.52867 13.7026 6.79724C13.7888 7.06581 13.8705 7.35587 13.8841 7.44181L13.9087 7.59807L12.2278 9.27769L10.5469 10.9573V10.5021V10.0469L10.7395 9.88557C10.8455 9.79682 11.0192 9.60622 11.1255 9.46196C11.2318 9.31773 11.3628 9.11182 11.4166 9.00439C11.4705 8.89697 11.5531 8.68602 11.6002 8.53562C11.6512 8.37248 11.6936 8.11243 11.7051 7.89105C11.7221 7.56334 11.715 7.50505 11.6438 7.39263C11.5995 7.32258 11.5059 7.23039 11.4359 7.18769C11.3319 7.12425 11.2388 7.11003 10.9277 7.10992L10.5469 7.10976V6.94401C10.5469 6.77916 10.5527 6.7724 11.6089 5.71566C12.193 5.13125 12.683 4.6606 12.6979 4.66978C12.7127 4.67896 12.8124 4.84057 12.9195 5.02894ZM10.3913 8.37745C10.3713 8.43014 10.3092 8.54566 10.2533 8.63422C10.1974 8.72278 10.0723 8.8713 9.97531 8.96423C9.87832 9.05717 9.69039 9.18667 9.5577 9.25195C9.425 9.31726 9.20215 9.38926 9.0625 9.41188C8.91098 9.43645 8.07848 9.45317 6.99809 9.45332C5.40898 9.4536 5.17125 9.46137 5.05395 9.51704C4.98047 9.55192 4.88113 9.63544 4.8332 9.70259C4.75883 9.8069 4.74703 9.87038 4.75246 10.1373C4.75594 10.3092 4.7973 10.6344 4.84438 10.86C4.89148 11.0856 4.97371 11.4108 5.02711 11.5827C5.08055 11.7545 5.2034 12.0841 5.30016 12.3151C5.39691 12.5461 5.57262 12.9152 5.69066 13.1355C5.80871 13.3557 6.05191 13.7556 6.23113 14.0242C6.41035 14.2928 6.71043 14.7059 6.89793 14.9422C7.08547 15.1786 7.57477 15.7059 7.98523 16.1142C8.3957 16.5224 8.89832 16.9897 9.10211 17.1528C9.3059 17.3158 9.53121 17.4916 9.60281 17.5434L9.73297 17.6377L11.6996 17.6572C13.6092 17.6762 13.6694 17.6791 13.7741 17.7573C13.8334 17.8016 13.9171 17.885 13.9602 17.9427C14.0141 18.015 14.0385 18.1083 14.0385 18.2432C14.0385 18.378 14.0141 18.4714 13.9602 18.5437C13.9171 18.6014 13.8334 18.6848 13.774 18.7291C13.6673 18.8088 13.6303 18.8097 10.2413 18.8213C8.02582 18.8289 6.63254 18.8181 6.29578 18.7907C6.00941 18.7675 5.65785 18.7216 5.51453 18.6889C5.37117 18.6561 5.11328 18.5854 4.94141 18.5318C4.76953 18.4782 4.4493 18.3487 4.22973 18.2441C4.0102 18.1394 3.67078 17.9444 3.47547 17.8106C3.2802 17.6768 2.99238 17.4478 2.83594 17.3017C2.67949 17.1556 2.43883 16.8933 2.30113 16.7189C2.16344 16.5444 1.95883 16.2416 1.84645 16.0459C1.7341 15.8502 1.58781 15.5481 1.52145 15.3747C1.45504 15.2013 1.36687 14.9175 1.32555 14.7441C1.28418 14.5706 1.23359 14.2191 1.21312 13.9628C1.19109 13.6873 1.18961 13.3451 1.20949 13.1257C1.22801 12.9216 1.27137 12.6203 1.30582 12.4563C1.34031 12.2922 1.40473 12.0461 1.44895 11.9094C1.49316 11.7726 1.61445 11.4814 1.71844 11.2622C1.82246 11.0429 1.99148 10.7441 2.09406 10.5981C2.1966 10.452 2.39582 10.2019 2.53676 10.0421C2.67766 9.88229 2.91613 9.6504 3.06664 9.52673C3.21715 9.40309 3.45098 9.23034 3.58625 9.14292C3.72152 9.05545 3.93273 8.93318 4.05562 8.87114C4.17852 8.80911 4.38977 8.71336 4.52512 8.65836C4.66047 8.60336 4.89738 8.52413 5.0516 8.48226C5.20586 8.44038 5.46387 8.38674 5.625 8.36307C5.78613 8.3394 5.98828 8.31432 6.07422 8.3074C6.16016 8.30049 7.17484 8.29189 8.3291 8.28826L10.4277 8.2817L10.3913 8.37745ZM13.984 9.746C13.9588 9.91823 13.8892 10.2525 13.8293 10.4888C13.7694 10.7252 13.6547 11.0943 13.5745 11.3092C13.4942 11.5241 13.3085 11.9372 13.1618 12.2272C13.015 12.5173 12.7786 12.9383 12.6362 13.1627C12.4938 13.3872 12.2266 13.7705 12.0425 14.0146C11.8583 14.2586 11.519 14.6726 11.2885 14.9346C11.0579 15.1966 10.7968 15.4805 10.7081 15.5654L10.5469 15.7198V14.1788V12.6377L12.2754 10.9083C13.9578 9.22495 14.0043 9.18221 14.0168 9.30585C14.0239 9.3757 14.0091 9.57376 13.984 9.746ZM9.375 13.1843C9.375 14.6191 9.35988 15.7821 9.34121 15.7821C9.32266 15.7821 9.05129 15.5196 8.73824 15.1988C8.42516 14.878 8.00336 14.4076 7.80094 14.1534C7.59848 13.8992 7.30539 13.4981 7.14961 13.262C6.99383 13.0259 6.76156 12.6238 6.63344 12.3686C6.50531 12.1133 6.34926 11.7655 6.28668 11.5957C6.22406 11.4259 6.1375 11.1485 6.09426 10.9791C6.05102 10.8097 6.01562 10.6611 6.01562 10.6488C6.01562 10.6365 6.73195 10.6217 7.60742 10.6158C8.48289 10.6099 9.23875 10.601 9.28711 10.5958L9.375 10.5865V13.1843ZM16.1178 10.7257C16.1771 10.77 16.2609 10.8534 16.3039 10.9111C16.3579 10.9833 16.3822 11.0767 16.3822 11.2115C16.3822 11.3464 16.3579 11.4398 16.3039 11.512C16.2609 11.5697 16.1771 11.6531 16.1179 11.6974C16.0209 11.7699 15.944 11.7793 15.3488 11.791C14.9148 11.7996 14.6875 11.7903 14.6875 11.7641C14.6875 11.742 14.7298 11.6043 14.7814 11.458C14.8331 11.3117 14.9043 11.0865 14.9395 10.9576C14.9748 10.8287 15.0117 10.6994 15.0216 10.6704C15.0359 10.6288 15.1427 10.6205 15.5248 10.6313C15.9407 10.6432 16.0254 10.6566 16.1178 10.7257ZM18.3957 13.0077C18.4692 13.0288 18.5792 13.0939 18.6403 13.1524C18.7013 13.2109 18.7692 13.3255 18.7912 13.4071C18.8187 13.5092 18.8183 13.603 18.79 13.7081C18.7657 13.7985 18.694 13.909 18.6144 13.9789C18.5287 14.0541 18.4189 14.1057 18.3122 14.1208C18.22 14.1339 17.0867 14.1395 15.7939 14.1333L13.4432 14.1219L13.6705 13.7595C13.7955 13.5602 13.948 13.301 14.0094 13.1834L14.1211 12.9696L16.1917 12.9695C17.4278 12.9695 18.3161 12.9849 18.3957 13.0077ZM16.1178 15.4134C16.1771 15.4577 16.2609 15.5411 16.3039 15.5988C16.3579 15.6711 16.3822 15.7644 16.3822 15.8993C16.3822 16.0341 16.3579 16.1275 16.3039 16.1998C16.2609 16.2575 16.1771 16.3409 16.1178 16.3852C16.0122 16.4641 15.9627 16.466 13.7667 16.4767C12.5329 16.4828 11.5234 16.4733 11.5234 16.4557C11.5234 16.4381 11.6129 16.3365 11.7221 16.2299C11.8314 16.1233 12.0621 15.8727 12.2346 15.6732L12.5484 15.3103L14.2792 15.3216C15.9572 15.3325 16.0133 15.3353 16.1178 15.4134Z" fill="#474747"/>
</svg>
