<svg width="19" height="25" viewBox="0 0 19 25" fill="none" xmlns="http://www.w3.org/2000/svg">
<path fill-rule="evenodd" clip-rule="evenodd" d="M10.1006 0.110469C9.94815 0.184013 9.68924 0.390252 9.52513 0.568678C9.36112 0.747203 9.18158 1.03893 9.12605 1.21716C9.07061 1.39539 9.01849 1.68546 9.01046 1.86183C9.00232 2.0382 9.02746 2.34521 9.06617 2.544L9.13677 2.90556L7.28993 2.93572C5.92932 2.95805 5.41159 2.99947 5.32325 3.09329C5.23723 3.18456 5.20331 3.58146 5.20331 4.49671C5.20331 5.64679 5.22106 5.78643 5.38267 5.91178C5.48135 5.98817 5.6996 6.05074 5.86778 6.05074H6.17353V7.96525C6.17353 9.55307 6.14748 9.93314 6.02098 10.1931C5.93708 10.3655 4.98488 11.9167 3.90498 13.6402C2.82517 15.3638 1.71801 17.1926 1.44469 17.7043C1.17136 18.216 0.794269 18.9872 0.606785 19.418C0.419302 19.8489 0.197353 20.4869 0.113545 20.8359C0.0190174 21.2293 -0.0202533 21.6613 0.0100545 21.9732C0.0370359 22.2499 0.151337 22.7034 0.264067 22.9811C0.393152 23.2993 0.650769 23.6621 0.960315 23.962C1.31394 24.3045 1.6537 24.5167 2.17244 24.7189L2.89327 25H9.5H16.1067L16.8276 24.7189C17.3463 24.5167 17.6861 24.3045 18.0397 23.962C18.3492 23.6621 18.6068 23.2993 18.7359 22.9811C18.8487 22.7034 18.963 22.2499 18.9899 21.9732C19.0203 21.6613 18.981 21.2293 18.8865 20.8359C18.8026 20.4869 18.5807 19.8489 18.3932 19.418C18.2057 18.9872 17.8286 18.216 17.5553 17.7043C17.282 17.1926 16.1748 15.3638 15.095 13.6402C14.0151 11.9167 13.0629 10.3655 12.979 10.1931C12.8525 9.93314 12.8265 9.55307 12.8265 7.96525V6.05074H13.1322C13.3004 6.05074 13.5186 5.98817 13.6173 5.91178C13.7789 5.78643 13.7967 5.64679 13.7967 4.49671C13.7967 3.64002 13.7605 3.18221 13.6866 3.10396C13.6261 3.03982 13.3691 2.96618 13.1156 2.94032C12.6708 2.89508 12.6577 2.88509 12.7406 2.65398C12.7878 2.52236 12.8258 2.18617 12.825 1.90688C12.8239 1.56315 12.7567 1.27553 12.6171 1.0167C12.5035 0.806352 12.2516 0.498561 12.0574 0.332767C11.7471 0.0678696 11.6233 0.0279145 11.041 0.00392191C10.6246 -0.0132157 10.2746 0.0264456 10.1006 0.110469ZM11.4871 1.29277C11.6097 1.42281 11.7373 1.64394 11.7706 1.78427C11.8038 1.9246 11.779 2.17256 11.7153 2.33522C11.6518 2.49788 11.5131 2.6954 11.4072 2.77404C11.3012 2.85268 11.075 2.91702 10.9046 2.91702C10.6851 2.91702 10.5157 2.83338 10.3245 2.63077C10.1245 2.41885 10.0544 2.25159 10.0544 1.98669C10.0544 1.72179 10.1245 1.55453 10.3245 1.34261C10.5236 1.13157 10.6826 1.05636 10.9294 1.05636C11.16 1.05636 11.3333 1.12991 11.4871 1.29277ZM12.7341 4.48388V4.97352H9.5H6.26594V4.48388V3.99423H9.5H12.7341V4.48388ZM11.81 8.14623V10.2418L12.0702 10.7659C12.2133 11.0542 12.713 11.8959 13.1806 12.6366L14.0309 13.983H9.5H4.96908L5.81936 12.6366C6.287 11.8959 6.78671 11.0542 6.92984 10.7659L7.18995 10.2418V8.14623V6.05074H9.5H11.81V8.14623ZM8.81964 7.07557C8.62338 7.1497 8.33749 7.33508 8.18429 7.48746C8.03118 7.63984 7.82882 7.94077 7.73476 8.15622C7.6406 8.37166 7.5627 8.74859 7.56159 8.9939C7.5603 9.27838 7.64429 9.62006 7.7938 9.93794C7.9446 10.2587 8.16664 10.5355 8.41751 10.7155C8.76014 10.9614 8.89042 10.9951 9.5 10.9951C10.1096 10.9951 10.2399 10.9614 10.5825 10.7155C10.8334 10.5355 11.0554 10.2587 11.2062 9.93794C11.3557 9.62006 11.4397 9.27838 11.4384 8.9939C11.4373 8.74859 11.3607 8.37127 11.2681 8.15533C11.1755 7.9395 10.949 7.6224 10.7644 7.45074C10.58 7.27907 10.272 7.09241 10.08 7.03591C9.88809 6.9794 9.60626 6.93485 9.4538 6.9369C9.30134 6.93906 9.016 7.00134 8.81964 7.07557ZM10.0268 8.25444C10.1358 8.33543 10.2733 8.55645 10.3322 8.74565C10.4236 9.03914 10.4138 9.13609 10.2649 9.40618C10.169 9.5802 9.98881 9.779 9.86453 9.84784C9.74025 9.91669 9.51783 9.94949 9.37018 9.9209C9.22261 9.8922 9.04317 9.81719 8.97137 9.75412C8.89966 9.69106 8.77899 9.51234 8.70322 9.35702C8.59252 9.13022 8.58605 9.0083 8.67014 8.73811C8.7278 8.55302 8.86418 8.33543 8.97322 8.25444C9.08225 8.17345 9.31935 8.10725 9.5 8.10725C9.68065 8.10725 9.91775 8.17345 10.0268 8.25444ZM15.5296 16.3585C15.9608 17.0726 16.5454 18.0971 16.8285 18.6353C17.1115 19.1735 17.4761 19.9664 17.6387 20.3973C17.8359 20.9204 17.9343 21.3475 17.9345 21.6825C17.9348 21.9772 17.8628 22.3401 17.7601 22.5619C17.6639 22.7697 17.4057 23.0833 17.1864 23.2589C16.967 23.4346 16.5512 23.6558 16.2623 23.7505C15.7831 23.9077 15.1911 23.9228 9.5 23.9228C3.80888 23.9228 3.21686 23.9077 2.73766 23.7505C2.44882 23.6558 2.03301 23.4346 1.81365 23.2589C1.59428 23.0833 1.33611 22.7697 1.23992 22.5619C1.13717 22.3401 1.06519 21.9772 1.06547 21.6825C1.06575 21.3475 1.16406 20.9204 1.36134 20.3973C1.52387 19.9664 1.88849 19.1735 2.17152 18.6353C2.45464 18.0971 3.03917 17.0726 3.47041 16.3585L4.25472 15.0602H9.5H14.7453L15.5296 16.3585ZM6.61374 16.0343C6.47467 16.0813 6.21447 16.2157 6.03539 16.333C5.85641 16.4502 5.61099 16.7296 5.49004 16.9539C5.36908 17.1781 5.2424 17.5292 5.20849 17.7341C5.16987 17.9673 5.20026 18.3013 5.2899 18.6278C5.3932 19.0044 5.53689 19.2486 5.80799 19.5082C6.01433 19.7059 6.28765 19.9096 6.41535 19.9611C6.54305 20.0125 6.8756 20.0546 7.15438 20.0546C7.43759 20.0546 7.79158 19.9848 7.95689 19.8962C8.11952 19.8092 8.35015 19.6439 8.46944 19.529C8.58873 19.4141 8.7655 19.1566 8.86215 18.9568C8.97294 18.7278 9.03799 18.3916 9.03799 18.0478C9.03799 17.7477 8.98144 17.3604 8.91232 17.187C8.84321 17.0137 8.66737 16.7466 8.52156 16.5935C8.37575 16.4404 8.1477 16.2555 8.01483 16.1827C7.88195 16.1099 7.56926 16.0275 7.31987 15.9996C7.07057 15.9717 6.7528 15.9874 6.61374 16.0343ZM7.67858 17.3137C7.80858 17.4222 7.94284 17.6454 7.97694 17.8099C8.01131 17.9757 7.99099 18.2317 7.9312 18.3846C7.87188 18.5363 7.68717 18.7381 7.52066 18.8332C7.31904 18.9482 7.13322 18.9835 6.96496 18.9388C6.8258 18.9018 6.6117 18.7651 6.48899 18.6351C6.33533 18.4722 6.26594 18.2884 6.26594 18.044C6.26594 17.7824 6.3369 17.614 6.53603 17.403C6.72998 17.1975 6.89584 17.1167 7.12416 17.1167C7.30296 17.1167 7.5457 17.203 7.67858 17.3137ZM11.4984 18.1418C11.3017 18.2162 10.9898 18.4063 10.8054 18.5643C10.621 18.7223 10.3558 19.0832 10.2161 19.3663C10.0126 19.7785 9.96201 20.0116 9.96201 20.5362C9.96201 21.044 10.0156 21.3052 10.2003 21.698C10.3313 21.9767 10.5995 22.3399 10.7961 22.5049C10.9928 22.67 11.3473 22.8749 11.5838 22.9604C11.8718 23.0643 12.1889 23.0989 12.5424 23.0649C12.8331 23.037 13.237 22.9244 13.4401 22.8145C13.6431 22.7047 13.9601 22.4381 14.1443 22.222C14.3382 21.9945 14.5399 21.6128 14.6231 21.3157C14.7022 21.0334 14.7669 20.6862 14.7669 20.5442C14.7669 20.4022 14.7022 20.0551 14.6231 19.7727C14.539 19.473 14.3373 19.0926 14.138 18.8582C13.9503 18.6376 13.5888 18.3541 13.3347 18.2285C13.0218 18.0738 12.7086 18.0011 12.3645 18.0034C12.0849 18.0051 11.6952 18.0675 11.4984 18.1418ZM12.9203 19.2567C13.0974 19.3564 13.3358 19.5833 13.4502 19.7607C13.5917 19.9806 13.658 20.2273 13.6577 20.5342C13.6575 20.8137 13.5864 21.1084 13.4705 21.3098C13.3569 21.5074 13.1215 21.7108 12.8704 21.8285C12.5755 21.9667 12.3628 22.0034 12.1271 21.9565C11.9454 21.9203 11.6736 21.7809 11.523 21.6465C11.3722 21.5122 11.1881 21.2775 11.1137 21.125C11.0393 20.9725 10.9784 20.7084 10.9784 20.538C10.9784 20.3676 11.0688 20.0577 11.1793 19.8494C11.3043 19.6137 11.5224 19.396 11.7568 19.273C11.964 19.1644 12.2381 19.0754 12.3659 19.0754C12.4937 19.0753 12.7432 19.1569 12.9203 19.2567Z" fill="#474747"/>
</svg>
