<svg width="19" height="24" viewBox="0 0 19 24" fill="none" xmlns="http://www.w3.org/2000/svg">
<path d="M18.2458 12.4326L18.2454 12.4455V12.4585C18.2454 16.4798 15.6251 19.3729 11.8531 19.3729C11.6912 19.3729 11.5012 19.4238 11.3397 19.5641C11.1899 19.6943 11.1253 19.8487 11.097 19.9493C11.0468 20.1283 11.0693 20.2879 11.0782 20.3465C11.1007 20.495 11.1535 20.6547 11.1989 20.7806C11.2963 21.0505 11.4475 21.3973 11.5849 21.7114L11.6037 21.7544C11.738 22.0612 11.8588 22.3373 11.9361 22.5415C11.7681 22.8719 11.628 23.0696 11.5243 23.1795C11.5218 23.1822 11.5193 23.1848 11.5169 23.1873C11.4584 23.1153 11.3872 23.0054 11.309 22.8507C11.109 22.4548 10.944 21.9295 10.825 21.4749C10.767 21.2533 10.7224 21.0586 10.6917 20.9187C10.6803 20.8666 10.6711 20.8236 10.6634 20.7875C10.6606 20.7744 10.658 20.7622 10.6556 20.7509C10.6515 20.7319 10.6467 20.7099 10.6425 20.6917C10.6409 20.6851 10.6362 20.6652 10.6298 20.6428L10.6295 20.6421C10.6274 20.6347 10.6171 20.5991 10.5994 20.557L10.5988 20.5557C10.5929 20.5417 10.5612 20.4657 10.4982 20.3854C10.4531 20.3331 10.3024 20.2103 10.1902 20.1534C10.0491 20.1177 9.80643 20.1412 9.6147 20.1983L9.59952 20.1647C9.33921 20.2822 9.25731 20.3149 9.19884 20.3383C9.18144 20.3453 9.16612 20.3514 9.14878 20.3587C9.0645 20.3941 8.9771 20.439 8.73451 20.5649C6.80296 20.8316 5.54398 20.847 4.56686 20.4939C3.6327 20.1563 2.84153 19.4352 1.97643 17.9132C1.90164 17.6464 1.81101 17.4229 1.72891 17.2205C1.71491 17.186 1.70115 17.1521 1.68776 17.1187C1.58547 16.8633 1.47692 16.5748 1.36641 16.1269C1.16449 15.3083 0.950541 13.9349 0.799429 11.29C2.3152 11.5982 3.72194 11.7568 5.30455 11.851L5.94687 11.8892L6.0823 11.2601C6.43468 9.62333 7.42154 8.09404 8.79377 6.35049C9.22976 5.79652 9.70789 5.21749 10.2098 4.60972C11.0916 3.54184 12.0467 2.3852 12.9752 1.11983C14.0822 2.20987 15.3196 3.87976 16.3236 5.76561C17.5158 8.00489 18.3152 10.43 18.2458 12.4326ZM11.427 23.2638C11.427 23.2638 11.4281 23.2631 11.4303 23.2622C11.4281 23.2634 11.427 23.2639 11.427 23.2638ZM11.5981 23.2702C11.5994 23.271 11.6 23.2714 11.6 23.2715C11.6 23.2715 11.5994 23.2711 11.5981 23.2702Z" stroke="#474747" stroke-width="1.5"/>
</svg>
