<?xml version="1.0" encoding="UTF-8"?>
<svg width="53px" height="66px" viewBox="0 0 53 66" version="1.1" xmlns="http://www.w3.org/2000/svg" xmlns:xlink="http://www.w3.org/1999/xlink">
    <!-- Generator: Sketch 56 (81588) - https://sketch.com -->
    <title>logo</title>
    <desc>Created with Sketch.</desc>
    <g id="Page-1" stroke="none" stroke-width="1" fill="none" fill-rule="evenodd">
        <g id="logo" fill="#44AB34" fill-rule="nonzero">
            <path d="M37.7815379,3.24115791 L35.5248826,0.910891553 L33.4067727,3.70266857 C29.9710379,8.2365879 28.3387992,10.2087607 27.5753561,11.0646092 L27.4526856,11.2139357 C26.5107689,12.4288444 25.5794356,13.5611161 24.6668636,14.6721244 C21.4692538,18.5608954 18.4491553,22.2336503 15.9120417,28.1463025 C15.8980909,28.1815803 15.4713902,29.2674593 15.0754773,30.9772234 C10.1955985,30.5548565 5.1459053,29.8236884 3.90957955,29.5854425 L0,28.8325278 L1.51967045,38.8572158 C2.65930303,46.674868 4.72353409,55.2449517 14.8229205,58.0193314 L15.0759583,58.076839 C18.5468106,58.692992 21.661197,58.3832241 24.3017386,57.6341754 C25.4668674,57.3036275 26.5252008,56.8807774 27.4955,56.4207165 C27.5455303,59.1801153 28.4773447,62.6315384 32.0381553,65.4015689 L35.5470114,61.167269 C32.8001553,59.0298223 32.8482614,56.1539585 33.1431515,54.5683916 C34.5502538,54.4838215 36.1035985,54.2489585 37.7122652,53.7927637 C42.9082008,52.3188291 48.6188712,48.5900164 51.3695758,40.5829273 C57.2163864,23.5742059 38.5772121,4.06221195 37.7815379,3.24115791 M28.3565985,48.4460057 C26.6570114,47.7022728 24.8280189,46.3839471 22.6146591,44.3170559 C20.5605303,42.0471967 19.9515076,39.2085438 19.9298598,36.6617782 C20.0496439,36.6646777 20.1790492,36.67096 20.2969091,36.6724098 C27.4031364,38.2637759 28.3359129,45.0989661 28.3565985,48.4460057 M16.2988144,52.7967705 C10.7363106,51.2228018 8.38296212,47.4625772 7.00279924,37.9926686 L6.61939394,35.466683 C8.82938636,35.7643695 11.6354129,36.0949174 14.4096894,36.3360628 C14.3577348,40.0687416 15.2173902,44.4422196 18.5232386,48.0265384 L18.6584167,48.162817 C20.4845227,49.8754806 22.1494735,51.1807584 23.7533295,52.1728855 C21.7776136,52.8808573 19.2693636,53.3003246 16.2988144,52.7967705 M46.1212045,38.9635323 C43.4926894,46.6149441 37.568428,48.5895331 33.9123674,49.0578094 C34.0225303,44.0502979 32.2599242,33.5689319 21.2787538,31.3430491 L20.7390038,31.286508 C20.7144697,31.2860247 20.6880114,31.2850582 20.6629962,31.284575 C20.8684091,30.5471244 21.0382235,30.0923794 21.0401477,30.0885133 C23.2472538,24.9418238 25.8954924,21.7189814 28.963697,17.9887188 C29.8916629,16.8598299 30.837428,15.7091944 31.7928144,14.4773718 C32.7015379,13.4509334 34.0667879,11.7585666 35.8649924,9.42975 C40.3239432,14.8200011 49.8638561,28.075747 46.1212045,38.9635323" id="Fill-677"></path>
        </g>
    </g>
</svg>